<svg width="466" height="535" viewBox="0 0 466 535" fill="none" xmlns="http://www.w3.org/2000/svg">
<path d="M40.1459 480.973C45.4981 493.661 59.4086 535 142.735 535C179.574 535 244.822 494.112 276.489 469.772C375.217 415.679 351.243 395.807 385.664 356.447C407.191 328.067 418.719 332.083 449.731 315.871C493.847 292.808 564.849 262.574 583.847 212.611C618.424 121.677 520 55.0142 452.122 17.177C400.257 -11.7348 332.393 2.82504 276.489 10.8727C226.377 18.0866 175.803 39.6424 135.2 70.0027C52.6348 131.74 -3.94315 237.778 0.214914 341.74C1.21802 366.82 10.9688 388.659 14.7786 413.044C16.6635 425.109 35.2537 469.375 40.1459 480.973Z" fill="white"/>
</svg>
