<svg width="524" height="739" viewBox="0 0 524 739" fill="none" xmlns="http://www.w3.org/2000/svg">
<path d="M311.284 234.264C311.284 235.093 310.613 235.764 309.784 235.764C308.956 235.764 308.284 235.093 308.284 234.264C308.284 233.436 308.956 232.764 309.784 232.764C310.613 232.764 311.284 233.436 311.284 234.264Z" fill="black"/>
<path d="M129.421 152.304C130.104 152.772 130.278 153.706 129.809 154.389C129.34 155.072 128.407 155.246 127.724 154.777C127.041 154.308 126.867 153.375 127.336 152.692C127.804 152.009 128.738 151.835 129.421 152.304Z" fill="black"/>
<path d="M293.585 380.605C294.061 381.283 293.897 382.219 293.219 382.695C292.541 383.171 291.606 383.007 291.13 382.329C290.654 381.651 290.818 380.715 291.496 380.239C292.174 379.763 293.109 379.927 293.585 380.605Z" fill="black"/>
<path d="M43.141 449.755C43.719 450.745 43.52 452.11 42.6965 452.805C41.873 453.5 40.7369 453.261 40.1589 452.271C39.5809 451.281 39.7799 449.916 40.6034 449.221C41.4268 448.526 42.563 448.765 43.141 449.755Z" fill="black"/>
<path d="M-10.859 546.755C-10.281 547.745 -10.48 549.11 -11.3035 549.805C-12.127 550.5 -13.2631 550.261 -13.8411 549.271C-14.4191 548.281 -14.2201 546.916 -13.3966 546.221C-12.5732 545.526 -11.437 545.765 -10.859 546.755Z" fill="black"/>
<path d="M139 369.624C139.521 370.517 139.342 371.749 138.599 372.376C137.856 373.003 136.831 372.787 136.309 371.894C135.788 371.001 135.967 369.769 136.71 369.142C137.453 368.515 138.478 368.731 139 369.624Z" fill="black"/>
<path d="M417.084 108.649C416.982 107.619 417.659 106.575 418.596 106.315C419.532 106.055 420.374 106.678 420.476 107.708C420.577 108.737 419.9 109.782 418.964 110.042C418.027 110.301 417.185 109.678 417.084 108.649Z" fill="black"/>
<path d="M471.605 213.944C471.211 212.988 471.557 211.792 472.379 211.273C473.201 210.754 474.187 211.108 474.581 212.064C474.975 213.02 474.629 214.216 473.807 214.735C472.985 215.254 471.999 214.9 471.605 213.944Z" fill="black"/>
<path d="M426.047 313.3C425.653 312.344 425.999 311.148 426.821 310.629C427.643 310.109 428.629 310.464 429.023 311.42C429.417 312.376 429.071 313.571 428.249 314.091C427.427 314.61 426.441 314.256 426.047 313.3Z" fill="black"/>
<path d="M294.047 250.3C293.653 249.344 293.999 248.148 294.821 247.629C295.643 247.109 296.629 247.464 297.023 248.42C297.418 249.376 297.071 250.571 296.249 251.091C295.427 251.61 294.441 251.256 294.047 250.3Z" fill="black"/>
<path d="M242.047 132.3C241.653 131.344 241.999 130.148 242.821 129.629C243.643 129.109 244.629 129.464 245.023 130.42C245.418 131.376 245.071 132.571 244.249 133.091C243.427 133.61 242.441 133.256 242.047 132.3Z" fill="black"/>
<path d="M190.047 14.2997C189.653 13.3437 189.999 12.1478 190.821 11.6286C191.643 11.1094 192.629 11.4635 193.023 12.4195C193.418 13.3755 193.071 14.5714 192.249 15.0906C191.427 15.6098 190.441 15.2557 190.047 14.2997Z" fill="black"/>
<path d="M309.284 173.264C309.284 174.093 308.613 174.764 307.784 174.764C306.956 174.764 306.284 174.093 306.284 173.264C306.284 172.436 306.956 171.764 307.784 171.764C308.613 171.764 309.284 172.436 309.284 173.264Z" fill="black"/>
<path d="M77.9933 119.437C78.6764 119.906 78.8501 120.84 78.3814 121.523C77.9126 122.206 76.9789 122.38 76.2959 121.911C75.6128 121.442 75.4391 120.509 75.9078 119.825C76.3766 119.142 77.3103 118.969 77.9933 119.437Z" fill="black"/>
<path d="M256.903 331.826C257.379 332.504 257.215 333.44 256.537 333.916C255.859 334.392 254.924 334.228 254.448 333.55C253.972 332.872 254.136 331.936 254.814 331.46C255.492 330.984 256.427 331.148 256.903 331.826Z" fill="black"/>
<path d="M106.016 256.801C106.418 257.374 106.28 258.164 105.707 258.566C105.134 258.968 104.344 258.829 103.942 258.257C103.54 257.684 103.679 256.894 104.251 256.492C104.824 256.09 105.614 256.229 106.016 256.801Z" fill="black"/>
<path d="M-1.4073 378.556C-0.8293 379.546 -1.0283 380.912 -1.85177 381.606C-2.67524 382.301 -3.81136 382.062 -4.38937 381.072C-4.96737 380.082 -4.76837 378.717 -3.9449 378.022C-3.12143 377.328 -1.98531 377.567 -1.4073 378.556Z" fill="black"/>
<path d="M-55.4074 475.556C-54.8294 476.546 -55.0284 477.912 -55.8518 478.606C-56.6753 479.301 -57.8114 479.062 -58.3894 478.072C-58.9674 477.082 -58.7684 475.717 -57.945 475.022C-57.1215 474.328 -55.9854 474.567 -55.4074 475.556Z" fill="black"/>
<path d="M98.8039 305.381C99.3254 306.274 99.1459 307.506 98.4028 308.133C97.6598 308.76 96.6347 308.544 96.1132 307.651C95.5917 306.758 95.7712 305.526 96.5142 304.899C97.2572 304.273 98.2824 304.488 98.8039 305.381Z" fill="black"/>
<path d="M426.826 183.801C426.724 182.772 427.401 181.727 428.338 181.467C429.275 181.207 430.116 181.831 430.218 182.86C430.32 183.889 429.643 184.934 428.706 185.194C427.769 185.454 426.928 184.83 426.826 183.801Z" fill="black"/>
<path d="M502.628 283.084C502.234 282.128 502.58 280.932 503.402 280.413C504.224 279.894 505.21 280.248 505.604 281.204C505.999 282.16 505.652 283.356 504.83 283.875C504.008 284.394 503.023 284.04 502.628 283.084Z" fill="black"/>
<path d="M457.07 382.44C456.676 381.484 457.022 380.288 457.844 379.769C458.666 379.25 459.652 379.604 460.046 380.56C460.441 381.516 460.094 382.712 459.272 383.231C458.451 383.75 457.465 383.396 457.07 382.44Z" fill="black"/>
<path d="M325.07 319.44C324.676 318.484 325.022 317.288 325.844 316.769C326.666 316.25 327.652 316.604 328.046 317.56C328.441 318.516 328.094 319.712 327.272 320.231C326.451 320.75 325.465 320.396 325.07 319.44Z" fill="black"/>
<path d="M273.07 201.44C272.676 200.484 273.022 199.288 273.844 198.769C274.666 198.25 275.652 198.604 276.046 199.56C276.441 200.516 276.094 201.712 275.272 202.231C274.451 202.75 273.465 202.396 273.07 201.44Z" fill="black"/>
<path d="M221.07 83.44C220.676 82.484 221.022 81.2881 221.844 80.7689C222.666 80.2497 223.652 80.6038 224.046 81.5598C224.441 82.5158 224.094 83.7117 223.272 84.2309C222.451 84.7501 221.465 84.396 221.07 83.44Z" fill="black"/>
<path d="M282.284 191.264C282.284 192.093 281.613 192.764 280.784 192.764C279.956 192.764 279.284 192.093 279.284 191.264C279.284 190.436 279.956 189.764 280.784 189.764C281.613 189.764 282.284 190.436 282.284 191.264Z" fill="black"/>
<path d="M77.5576 151.884C78.2406 152.353 78.4144 153.287 77.9456 153.97C77.4769 154.653 76.5432 154.827 75.8601 154.358C75.177 153.889 75.0033 152.956 75.4721 152.273C75.9408 151.589 76.8745 151.416 77.5576 151.884Z" fill="black"/>
<path d="M245.145 362.071C245.621 362.749 245.457 363.684 244.779 364.16C244.101 364.636 243.165 364.472 242.689 363.794C242.213 363.116 242.377 362.181 243.055 361.705C243.733 361.229 244.669 361.393 245.145 362.071Z" fill="black"/>
<path d="M96.0857 282.344C96.4877 282.916 96.3493 283.706 95.7767 284.108C95.204 284.51 94.414 284.372 94.012 283.799C93.6101 283.227 93.7484 282.437 94.3211 282.035C94.8937 281.633 95.6838 281.771 96.0857 282.344Z" fill="black"/>
<path d="M-15.6871 422.702C-15.1091 423.692 -15.3081 425.057 -16.1316 425.752C-16.9551 426.446 -18.0912 426.207 -18.6692 425.218C-19.2472 424.228 -19.0482 422.862 -18.2247 422.168C-17.4013 421.473 -16.2652 421.712 -15.6871 422.702Z" fill="black"/>
<path d="M-69.6872 519.702C-69.1092 520.692 -69.3081 522.057 -70.1316 522.752C-70.9551 523.446 -72.0912 523.207 -72.6692 522.218C-73.2472 521.228 -73.0482 519.862 -72.2247 519.168C-71.4013 518.473 -70.2652 518.712 -69.6872 519.702Z" fill="black"/>
<path d="M85.9193 345.214C86.4408 346.107 86.2612 347.339 85.5182 347.966C84.7752 348.592 83.7501 348.377 83.2285 347.484C82.707 346.591 82.8866 345.359 83.6296 344.732C84.3726 344.105 85.3977 344.321 85.9193 345.214Z" fill="black"/>
<path d="M455.148 152.971C455.047 151.942 455.724 150.897 456.66 150.637C457.597 150.377 458.439 151.001 458.54 152.03C458.642 153.059 457.965 154.104 457.028 154.364C456.091 154.624 455.25 154 455.148 152.971Z" fill="black"/>
<path d="M520.844 245.391C520.45 244.435 520.796 243.239 521.618 242.719C522.44 242.2 523.426 242.554 523.82 243.51C524.215 244.466 523.868 245.662 523.046 246.181C522.225 246.701 521.239 246.347 520.844 245.391Z" fill="black"/>
<path d="M475.286 344.746C474.892 343.79 475.239 342.594 476.06 342.075C476.882 341.556 477.868 341.91 478.262 342.866C478.657 343.822 478.31 345.018 477.489 345.537C476.667 346.056 475.681 345.702 475.286 344.746Z" fill="black"/>
<path d="M343.286 281.746C342.892 280.79 343.238 279.594 344.06 279.075C344.882 278.556 345.868 278.91 346.262 279.866C346.657 280.822 346.31 282.018 345.488 282.537C344.667 283.056 343.681 282.702 343.286 281.746Z" fill="black"/>
<path d="M291.286 163.746C290.892 162.79 291.238 161.594 292.06 161.075C292.882 160.556 293.868 160.91 294.262 161.866C294.657 162.822 294.31 164.018 293.488 164.537C292.667 165.056 291.681 164.702 291.286 163.746Z" fill="black"/>
<path d="M239.286 45.7464C238.892 44.7904 239.238 43.5945 240.06 43.0753C240.882 42.5561 241.868 42.9102 242.262 43.8662C242.657 44.8222 242.31 46.0181 241.488 46.5373C240.667 47.0565 239.681 46.7024 239.286 45.7464Z" fill="black"/>
<path d="M270.284 216.264C270.284 217.093 269.613 217.764 268.784 217.764C267.956 217.764 267.284 217.093 267.284 216.264C267.284 215.436 267.956 214.764 268.784 214.764C269.613 214.764 270.284 215.436 270.284 216.264Z" fill="black"/>
<path d="M91.3809 175.924C92.0639 176.393 92.2377 177.327 91.7689 178.01C91.3002 178.693 90.3665 178.867 89.6834 178.398C89.0003 177.929 88.8266 176.995 89.2953 176.312C89.7641 175.629 90.6978 175.456 91.3809 175.924Z" fill="black"/>
<path d="M249.686 389.427C250.162 390.105 249.998 391.041 249.32 391.517C248.642 391.993 247.706 391.829 247.23 391.151C246.754 390.473 246.918 389.537 247.596 389.061C248.274 388.585 249.21 388.749 249.686 389.427Z" fill="black"/>
<path d="M99.9205 305.447C100.322 306.02 100.184 306.81 99.6114 307.212C99.0388 307.614 98.2487 307.475 97.8468 306.903C97.4448 306.33 97.5832 305.54 98.1559 305.138C98.7285 304.736 99.5186 304.875 99.9205 305.447Z" fill="black"/>
<path d="M-10.1726 462.632C-9.59456 463.622 -9.79356 464.987 -10.617 465.682C-11.4405 466.376 -12.5766 466.137 -13.1546 465.148C-13.7326 464.158 -13.5336 462.792 -12.7102 462.098C-11.8867 461.403 -10.7506 461.642 -10.1726 462.632Z" fill="black"/>
<path d="M-64.1725 559.632C-63.5945 560.622 -63.7935 561.987 -64.617 562.682C-65.4404 563.376 -66.5766 563.137 -67.1546 562.148C-67.7326 561.158 -67.5336 559.792 -66.7101 559.098C-65.8866 558.403 -64.7505 558.642 -64.1725 559.632Z" fill="black"/>
<path d="M90.8951 381.243C91.4166 382.136 91.237 383.368 90.494 383.994C89.751 384.621 88.7259 384.405 88.2044 383.512C87.6828 382.619 87.8624 381.387 88.6054 380.761C89.3484 380.134 90.3736 380.35 90.8951 381.243Z" fill="black"/>
<path d="M465.651 118.15C465.549 117.121 466.226 116.076 467.163 115.816C468.1 115.556 468.941 116.18 469.043 117.209C469.145 118.238 468.468 119.283 467.531 119.543C466.594 119.803 465.753 119.179 465.651 118.15Z" fill="black"/>
<path d="M520.847 209.02C520.453 208.064 520.799 206.868 521.621 206.349C522.443 205.829 523.429 206.184 523.823 207.14C524.218 208.096 523.871 209.291 523.049 209.811C522.228 210.33 521.242 209.976 520.847 209.02Z" fill="black"/>
<path d="M475.289 308.376C474.895 307.42 475.242 306.224 476.063 305.704C476.885 305.185 477.871 305.539 478.266 306.495C478.66 307.451 478.313 308.647 477.492 309.166C476.67 309.686 475.684 309.332 475.289 308.376Z" fill="black"/>
<path d="M343.289 245.376C342.895 244.42 343.242 243.224 344.063 242.704C344.885 242.185 345.871 242.539 346.266 243.495C346.66 244.451 346.313 245.647 345.492 246.166C344.67 246.686 343.684 246.332 343.289 245.376Z" fill="black"/>
<path d="M291.289 127.376C290.895 126.42 291.242 125.224 292.063 124.704C292.885 124.185 293.871 124.539 294.266 125.495C294.66 126.451 294.313 127.647 293.492 128.166C292.67 128.686 291.684 128.332 291.289 127.376Z" fill="black"/>
<path d="M239.289 9.37558C238.895 8.41957 239.242 7.22369 240.063 6.70449C240.885 6.18528 241.871 6.53938 242.266 7.49538C242.66 8.45138 242.313 9.64727 241.492 10.1665C240.67 10.6857 239.684 10.3316 239.289 9.37558Z" fill="black"/>
<path d="M339.284 205.264C339.284 206.093 338.613 206.764 337.784 206.764C336.956 206.764 336.284 206.093 336.284 205.264C336.284 204.436 336.956 203.764 337.784 203.764C338.613 203.764 339.284 204.436 339.284 205.264Z" fill="black"/>
<path d="M121.353 112.808C122.036 113.277 122.21 114.21 121.741 114.894C121.272 115.577 120.338 115.75 119.655 115.282C118.972 114.813 118.799 113.879 119.267 113.196C119.736 112.513 120.67 112.339 121.353 112.808Z" fill="black"/>
<path d="M299.842 340.783C300.318 341.461 300.155 342.396 299.476 342.872C298.798 343.348 297.863 343.184 297.387 342.506C296.911 341.828 297.075 340.893 297.753 340.417C298.431 339.941 299.366 340.105 299.842 340.783Z" fill="black"/>
<path d="M142.279 264.365C142.681 264.938 142.543 265.728 141.97 266.13C141.398 266.532 140.607 266.394 140.206 265.821C139.804 265.248 139.942 264.458 140.515 264.056C141.087 263.654 141.877 263.793 142.279 264.365Z" fill="black"/>
<path d="M50.74 391.63C51.318 392.619 51.119 393.985 50.2955 394.68C49.472 395.374 48.3359 395.135 47.7579 394.145C47.1799 393.156 47.3789 391.79 48.2024 391.095C49.0258 390.401 50.162 390.64 50.74 391.63Z" fill="black"/>
<path d="M-3.26003 488.63C-2.68202 489.619 -2.88102 490.985 -3.70449 491.68C-4.52796 492.374 -5.66409 492.135 -6.24209 491.145C-6.82009 490.156 -6.62109 488.79 -5.79762 488.095C-4.97415 487.401 -3.83803 487.64 -3.26003 488.63Z" fill="black"/>
<path d="M145.856 317.177C146.378 318.07 146.198 319.302 145.455 319.929C144.712 320.556 143.687 320.34 143.166 319.447C142.644 318.554 142.824 317.322 143.567 316.695C144.31 316.069 145.335 316.284 145.856 317.177Z" fill="black"/>
<path d="M388.98 153.457C388.878 152.428 389.555 151.383 390.492 151.123C391.429 150.864 392.27 151.487 392.372 152.516C392.473 153.546 391.796 154.59 390.86 154.85C389.923 155.11 389.081 154.486 388.98 153.457Z" fill="black"/>
<path d="M457.633 264.958C457.239 264.002 457.586 262.806 458.407 262.287C459.229 261.768 460.215 262.122 460.61 263.078C461.004 264.034 460.657 265.23 459.836 265.749C459.014 266.268 458.028 265.914 457.633 264.958Z" fill="black"/>
<path d="M412.076 364.314C411.681 363.358 412.028 362.162 412.85 361.643C413.671 361.124 414.657 361.478 415.052 362.434C415.446 363.39 415.1 364.586 414.278 365.105C413.456 365.624 412.47 365.27 412.076 364.314Z" fill="black"/>
<path d="M280.076 301.314C279.681 300.358 280.028 299.162 280.85 298.643C281.671 298.124 282.657 298.478 283.052 299.434C283.446 300.39 283.1 301.586 282.278 302.105C281.456 302.624 280.47 302.27 280.076 301.314Z" fill="black"/>
<path d="M151.998 207.376C151.604 206.42 151.95 205.224 152.772 204.704C153.594 204.185 154.58 204.539 154.974 205.495C155.369 206.451 155.022 207.647 154.2 208.166C153.379 208.686 152.393 208.332 151.998 207.376Z" fill="black"/>
<path d="M151.998 207.376C151.604 206.42 151.95 205.224 152.772 204.704C153.594 204.185 154.58 204.539 154.974 205.495C155.369 206.451 155.022 207.647 154.2 208.166C153.379 208.686 152.393 208.332 151.998 207.376Z" fill="black"/>
<path d="M11.4742 145.437C11.0798 144.481 11.4263 143.285 12.2481 142.766C13.07 142.247 14.0559 142.601 14.4503 143.557C14.8447 144.513 14.4981 145.709 13.6763 146.228C12.8545 146.747 11.8685 146.393 11.4742 145.437Z" fill="black"/>
<path d="M286.474 423.437C286.08 422.481 286.426 421.285 287.248 420.766C288.07 420.247 289.056 420.601 289.45 421.557C289.845 422.513 289.498 423.709 288.676 424.228C287.854 424.747 286.869 424.393 286.474 423.437Z" fill="black"/>
<path d="M176.076 65.314C175.681 64.358 176.028 63.1621 176.849 62.6429C177.671 62.1237 178.657 62.4778 179.052 63.4338C179.446 64.3898 179.099 65.5857 178.278 66.1049C177.456 66.6241 176.47 66.27 176.076 65.314Z" fill="black"/>
<path d="M35.5514 3.37558C35.157 2.41958 35.5035 1.22369 36.3253 0.704486C37.1472 0.185285 38.1331 0.539381 38.5275 1.49538C38.9219 2.45138 38.5753 3.64727 37.7535 4.16647C36.9317 4.68567 35.9458 4.33158 35.5514 3.37558Z" fill="black"/>
<path d="M310.551 281.376C310.157 280.42 310.504 279.224 311.325 278.704C312.147 278.185 313.133 278.539 313.528 279.495C313.922 280.451 313.575 281.647 312.754 282.166C311.932 282.686 310.946 282.332 310.551 281.376Z" fill="black"/>
<path d="M358.284 244.264C358.284 245.093 357.613 245.764 356.784 245.764C355.956 245.764 355.284 245.093 355.284 244.264C355.284 243.436 355.956 242.764 356.784 242.764C357.613 242.764 358.284 243.436 358.284 244.264Z" fill="black"/>
<path d="M217.76 182.326C217.76 183.154 217.089 183.826 216.26 183.826C215.432 183.826 214.76 183.154 214.76 182.326C214.76 181.498 215.432 180.826 216.26 180.826C217.089 180.826 217.76 181.498 217.76 182.326Z" fill="black"/>
<path d="M492.76 460.326C492.76 461.154 492.089 461.826 491.26 461.826C490.432 461.826 489.76 461.154 489.76 460.326C489.76 459.498 490.432 458.826 491.26 458.826C492.089 458.826 492.76 459.498 492.76 460.326Z" fill="black"/>
<path d="M164.26 119.209C164.943 119.678 165.117 120.612 164.648 121.295C164.179 121.978 163.246 122.151 162.563 121.683C161.88 121.214 161.706 120.28 162.175 119.597C162.643 118.914 163.577 118.74 164.26 119.209Z" fill="black"/>
<path d="M23.7359 57.2707C24.419 57.7394 24.5927 58.6731 24.124 59.3562C23.6553 60.0392 22.7215 60.213 22.0385 59.7442C21.3554 59.2755 21.1817 58.3418 21.6504 57.6587C22.1192 56.9757 23.0529 56.8019 23.7359 57.2707Z" fill="black"/>
<path d="M298.736 335.271C299.419 335.739 299.593 336.673 299.124 337.356C298.655 338.039 297.722 338.213 297.039 337.744C296.356 337.275 296.182 336.342 296.651 335.659C297.119 334.976 298.053 334.802 298.736 335.271Z" fill="black"/>
<path d="M337.8 361.788C338.276 362.466 338.112 363.402 337.434 363.878C336.756 364.354 335.82 364.19 335.344 363.512C334.868 362.834 335.032 361.898 335.71 361.422C336.388 360.946 337.324 361.11 337.8 361.788Z" fill="black"/>
<path d="M197.276 299.85C197.752 300.528 197.588 301.464 196.91 301.939C196.232 302.415 195.296 302.252 194.82 301.574C194.344 300.895 194.508 299.96 195.186 299.484C195.864 299.008 196.8 299.172 197.276 299.85Z" fill="black"/>
<path d="M472.276 577.85C472.752 578.528 472.588 579.464 471.91 579.939C471.232 580.415 470.296 580.252 469.82 579.574C469.344 578.895 469.508 577.96 470.186 577.484C470.864 577.008 471.8 577.172 472.276 577.85Z" fill="black"/>
<path d="M33.8111 220.167C34.2131 220.739 34.0747 221.53 33.5021 221.931C32.9294 222.333 32.1394 222.195 31.7374 221.622C31.3355 221.05 31.4738 220.26 32.0465 219.858C32.6191 219.456 33.4092 219.594 33.8111 220.167Z" fill="black"/>
<path d="M308.811 498.167C309.213 498.739 309.075 499.53 308.502 499.931C307.93 500.333 307.139 500.195 306.737 499.622C306.336 499.05 306.474 498.26 307.047 497.858C307.619 497.456 308.409 497.594 308.811 498.167Z" fill="black"/>
<path d="M96.837 422.29C97.415 423.279 97.216 424.645 96.3925 425.34C95.569 426.034 94.4329 425.795 93.8549 424.805C93.2769 423.816 93.4759 422.45 94.2994 421.755C95.1228 421.061 96.259 421.3 96.837 422.29Z" fill="black"/>
<path d="M-43.6872 360.351C-43.1091 361.341 -43.3081 362.706 -44.1316 363.401C-44.9551 364.096 -46.0912 363.857 -46.6692 362.867C-47.2472 361.877 -47.0482 360.512 -46.2247 359.817C-45.4013 359.122 -44.2652 359.362 -43.6872 360.351Z" fill="black"/>
<path d="M231.313 638.351C231.891 639.341 231.692 640.706 230.868 641.401C230.045 642.096 228.909 641.857 228.331 640.867C227.753 639.877 227.952 638.512 228.775 637.817C229.599 637.122 230.735 637.362 231.313 638.351Z" fill="black"/>
<path d="M42.837 519.29C43.415 520.279 43.216 521.645 42.3925 522.34C41.569 523.034 40.4329 522.795 39.8549 521.805C39.2769 520.816 39.4759 519.45 40.2994 518.755C41.1228 518.061 42.259 518.3 42.837 519.29Z" fill="black"/>
<path d="M-97.6872 457.351C-97.1092 458.341 -97.3081 459.706 -98.1316 460.401C-98.9551 461.096 -100.091 460.857 -100.669 459.867C-101.247 458.877 -101.048 457.512 -100.225 456.817C-99.4013 456.122 -98.2652 456.362 -97.6872 457.351Z" fill="black"/>
<path d="M177.313 735.351C177.891 736.341 177.692 737.706 176.868 738.401C176.045 739.096 174.909 738.857 174.331 737.867C173.753 736.877 173.952 735.512 174.775 734.817C175.599 734.122 176.735 734.362 177.313 735.351Z" fill="black"/>
<path d="M187.45 344.842C187.971 345.735 187.792 346.967 187.049 347.594C186.306 348.22 185.28 348.005 184.759 347.112C184.237 346.219 184.417 344.987 185.16 344.36C185.903 343.733 186.928 343.949 187.45 344.842Z" fill="black"/>
<path d="M362.713 110.968C362.611 109.938 363.288 108.894 364.225 108.634C365.162 108.374 366.004 108.997 366.105 110.027C366.207 111.056 365.53 112.101 364.593 112.361C363.656 112.62 362.815 111.997 362.713 110.968Z" fill="black"/>
<path d="M420.219 231.86C419.824 230.904 420.171 229.708 420.993 229.189C421.815 228.67 422.801 229.024 423.195 229.98C423.589 230.936 423.243 232.132 422.421 232.651C421.599 233.17 420.613 232.816 420.219 231.86Z" fill="black"/>
<path d="M374.661 331.216C374.267 330.26 374.613 329.064 375.435 328.545C376.257 328.026 377.243 328.38 377.637 329.336C378.031 330.292 377.685 331.488 376.863 332.007C376.041 332.526 375.055 332.172 374.661 331.216Z" fill="black"/>
<path d="M242.661 268.216C242.267 267.26 242.613 266.064 243.435 265.545C244.257 265.026 245.243 265.38 245.637 266.336C246.031 267.292 245.685 268.488 244.863 269.007C244.041 269.526 243.055 269.172 242.661 268.216Z" fill="black"/>
<path d="M190.661 150.216C190.267 149.26 190.613 148.064 191.435 147.545C192.257 147.026 193.243 147.38 193.637 148.336C194.031 149.292 193.685 150.488 192.863 151.007C192.041 151.526 191.055 151.172 190.661 150.216Z" fill="black"/>
<path d="M138.661 32.2162C138.267 31.2602 138.613 30.0643 139.435 29.5451C140.257 29.0259 141.243 29.38 141.637 30.336C142.031 31.292 141.685 32.4879 140.863 33.0071C140.041 33.5263 139.055 33.1722 138.661 32.2162Z" fill="black"/>
<path d="M400.284 265.264C400.284 266.093 399.613 266.764 398.784 266.764C397.956 266.764 397.284 266.093 397.284 265.264C397.284 264.436 397.956 263.764 398.784 263.764C399.613 263.764 400.284 264.436 400.284 265.264Z" fill="black"/>
<path d="M205.34 96.4613C206.023 96.93 206.197 97.8637 205.728 98.5468C205.259 99.2299 204.325 99.4036 203.642 98.9349C202.959 98.4661 202.785 97.5324 203.254 96.8493C203.723 96.1663 204.657 95.9925 205.34 96.4613Z" fill="black"/>
<path d="M384.241 354.847C384.717 355.526 384.553 356.461 383.875 356.937C383.197 357.413 382.262 357.249 381.786 356.571C381.31 355.893 381.474 354.957 382.152 354.482C382.83 354.006 383.765 354.169 384.241 354.847Z" fill="black"/>
<path d="M213.556 276.243C213.958 276.816 213.82 277.606 213.247 278.008C212.675 278.41 211.885 278.272 211.483 277.699C211.081 277.126 211.219 276.336 211.792 275.934C212.364 275.532 213.155 275.671 213.556 276.243Z" fill="black"/>
<path d="M153.238 412.159C153.816 413.148 153.617 414.514 152.793 415.208C151.97 415.903 150.834 415.664 150.256 414.674C149.678 413.685 149.877 412.319 150.7 411.624C151.524 410.93 152.66 411.169 153.238 412.159Z" fill="black"/>
<path d="M99.2377 509.159C99.8157 510.148 99.6167 511.514 98.7932 512.208C97.9697 512.903 96.8336 512.664 96.2556 511.674C95.6776 510.685 95.8766 509.319 96.7001 508.624C97.5235 507.93 98.6597 508.169 99.2377 509.159Z" fill="black"/>
<path d="M238.34 335.701C238.861 336.594 238.682 337.826 237.939 338.452C237.196 339.079 236.171 338.863 235.649 337.97C235.128 337.077 235.307 335.845 236.05 335.219C236.793 334.592 237.818 334.808 238.34 335.701Z" fill="black"/>
<path d="M312.647 98.053C312.545 97.0239 313.222 95.9789 314.159 95.7191C315.096 95.4593 315.938 96.0829 316.039 97.1121C316.141 98.1412 315.464 99.1861 314.527 99.446C313.59 99.7058 312.749 99.0822 312.647 98.053Z" fill="black"/>
<path d="M368.556 233.949C368.162 232.993 368.508 231.797 369.33 231.278C370.152 230.759 371.138 231.113 371.532 232.069C371.927 233.025 371.58 234.221 370.758 234.74C369.936 235.259 368.951 234.905 368.556 233.949Z" fill="black"/>
<path d="M322.998 333.305C322.604 332.349 322.95 331.153 323.772 330.634C324.594 330.115 325.58 330.469 325.974 331.425C326.369 332.381 326.022 333.577 325.2 334.096C324.379 334.615 323.393 334.261 322.998 333.305Z" fill="black"/>
<path d="M190.998 270.305C190.604 269.349 190.95 268.153 191.772 267.634C192.594 267.115 193.58 267.469 193.974 268.425C194.369 269.381 194.022 270.577 193.2 271.096C192.379 271.615 191.393 271.261 190.998 270.305Z" fill="black"/>
<path d="M138.998 152.305C138.604 151.349 138.95 150.153 139.772 149.634C140.594 149.115 141.58 149.469 141.974 150.425C142.369 151.381 142.022 152.577 141.2 153.096C140.379 153.615 139.393 153.261 138.998 152.305Z" fill="black"/>
<path d="M89.2004 25.6364C88.806 24.6804 89.1525 23.4845 89.9743 22.9653C90.7962 22.4461 91.7821 22.8002 92.1765 23.7562C92.5709 24.7122 92.2243 25.9081 91.4025 26.4273C90.5807 26.9465 89.5948 26.5924 89.2004 25.6364Z" fill="black"/>
</svg>
