<svg width="140" height="73" viewBox="0 0 140 73" fill="none" xmlns="http://www.w3.org/2000/svg">
<path d="M139.827 5.47976C139.827 5.47976 135.445 2.22503 124.505 1.15762L129.535 17.6259C138.012 10.628 139.827 5.47976 139.827 5.47976ZM123.124 0.908563C110.617 -0.312123 90.1313 1.12932 58.8476 12.2723C57.8437 12.6059 56.9146 12.9297 56.0569 13.2425C55.199 13.5546 54.413 13.8548 53.6957 14.1401C52.9784 14.4255 52.3295 14.6953 51.7468 14.9472C51.1634 15.1994 50.6463 15.4336 50.1921 15.6471C49.7372 15.8607 49.3451 16.0529 49.0137 16.2219C48.6815 16.3904 48.4092 16.536 48.1941 16.6541C47.7624 16.8907 47.5595 17.0212 47.5595 17.0212C47.5595 17.0212 47.5874 16.9788 47.6878 16.8811C47.7884 16.7842 47.9613 16.6312 48.2508 16.411C48.3958 16.3005 48.5697 16.1734 48.7786 16.0272C48.9874 15.881 49.2308 15.7165 49.515 15.5319C49.799 15.3465 50.1233 15.1419 50.4932 14.9149C50.8631 14.6879 51.2795 14.439 51.7466 14.1669C52.2144 13.8946 52.6972 13.6285 53.1847 13.3702C53.6717 13.1128 54.1636 12.864 54.6482 12.6266C55.1338 12.3897 55.6111 12.1638 56.0713 11.9523C56.2517 11.8695 56.413 11.7994 56.5872 11.7216L26.1442 4.30108L18.2972 6.58767L39.3202 22.8335L46.7528 47.1678L38.3949 72.3877L46.2385 70.0898L67.2502 46.8291C67.0578 46.8625 66.8805 46.8951 66.6794 46.928C66.1796 47.0098 65.6568 47.0893 65.1222 47.1632C64.5886 47.2376 64.0416 47.3061 63.4939 47.3647C62.9455 47.4236 62.3969 47.4718 61.8568 47.5073C61.3174 47.5427 60.8344 47.5684 60.4008 47.5869C59.9667 47.6062 59.5831 47.6171 59.2448 47.6218C58.9066 47.6273 58.6122 47.627 58.358 47.6223C58.103 47.6177 57.8878 47.6095 57.7058 47.5988C57.3427 47.578 57.114 47.5484 56.9762 47.5235C56.8383 47.4986 56.7917 47.4797 56.7917 47.4797C56.7917 47.4797 57.0334 47.4737 57.5222 47.4292C57.7673 47.4067 58.0738 47.3755 58.4435 47.3296C58.8127 47.2846 59.2453 47.2249 59.7412 47.1481C60.2371 47.0714 60.7969 46.9767 61.4209 46.86C62.0452 46.7441 62.7341 46.6053 63.4884 46.4412C64.2419 46.2766 65.0607 46.0865 65.9466 45.866C66.832 45.6464 67.7834 45.3959 68.8017 45.1118C101.017 36.8713 118.832 26.6106 128.529 18.6044L123.124 0.908563ZM104.021 16.3454C104.024 16.3537 104.026 16.3621 104.028 16.3708C104.034 16.3861 104.038 16.4009 104.042 16.4159C104.047 16.4307 104.052 16.4453 104.056 16.4603C104.06 16.4758 104.064 16.4901 104.068 16.5049C104.073 16.5204 104.077 16.5354 104.081 16.5504C104.085 16.5652 104.09 16.58 104.094 16.595C104.098 16.6101 104.102 16.6255 104.106 16.6406C104.11 16.6556 104.114 16.6706 104.117 16.6856C104.122 16.7004 104.126 16.7154 104.13 16.7304C104.134 16.7461 104.137 16.7604 104.141 16.7755C104.145 16.7912 104.149 16.8062 104.152 16.8214C104.156 16.8364 104.16 16.8514 104.163 16.8667C104.167 16.8817 104.17 16.8967 104.174 16.9117C104.177 16.9269 104.181 16.942 104.184 16.9579C104.188 16.9731 104.191 16.9881 104.194 17.0026C104.198 17.0184 104.201 17.0336 104.205 17.0488C104.208 17.064 104.211 17.0791 104.215 17.0943C104.218 17.1102 104.221 17.1247 104.224 17.14C104.227 17.1552 104.23 17.1704 104.233 17.1857C104.236 17.2009 104.239 17.2163 104.242 17.2316C104.245 17.2468 104.247 17.2622 104.251 17.2775C104.254 17.2927 104.256 17.3081 104.259 17.3234C104.262 17.3386 104.264 17.3542 104.267 17.3695C104.269 17.3849 104.273 17.4001 104.275 17.4156C104.277 17.431 104.28 17.4465 104.283 17.4617C104.285 17.4772 104.288 17.4926 104.29 17.508C104.293 17.5235 104.295 17.5389 104.297 17.5537C104.3 17.5691 104.302 17.5845 104.304 17.6C104.307 17.6154 104.309 17.6309 104.311 17.6465C104.313 17.6613 104.315 17.6776 104.317 17.6924C104.32 17.7078 104.321 17.7235 104.324 17.7389C104.325 17.7546 104.328 17.77 104.329 17.785C104.331 17.8006 104.333 17.8163 104.335 17.8317C104.337 17.8474 104.338 17.8624 104.34 17.878C104.342 17.8937 104.343 17.9093 104.345 17.9243C104.347 17.9399 104.349 17.9554 104.35 17.9706C104.351 17.9862 104.353 18.0019 104.355 18.0175C104.356 18.0327 104.357 18.0484 104.359 18.064C104.36 18.0792 104.361 18.0948 104.363 18.1105C104.364 18.1257 104.366 18.1413 104.366 18.1565C104.368 18.1722 104.369 18.188 104.37 18.2032C104.372 18.2189 104.372 18.2349 104.373 18.2499C104.374 18.2658 104.375 18.2809 104.376 18.2968C104.377 18.3127 104.378 18.3279 104.379 18.343C104.38 18.3589 104.38 18.3741 104.381 18.3899C104.382 18.4051 104.383 18.421 104.384 18.4362C104.384 18.4523 104.385 18.4674 104.386 18.4833C104.386 18.4987 104.387 18.5139 104.387 18.5299C104.388 18.5451 104.388 18.5612 104.388 18.5766C104.389 18.5917 104.389 18.6078 104.39 18.623C104.391 18.6391 104.391 18.6545 104.391 18.6699C104.391 18.686 104.391 18.7006 104.391 18.7167C104.392 18.7326 104.392 18.7473 104.392 18.7636C104.392 18.7788 104.392 18.7944 104.392 18.8097C104.392 18.8258 104.392 18.8412 104.392 18.8568C104.392 18.8722 104.392 18.8876 104.392 18.903C104.391 18.9193 104.391 18.9347 104.391 18.9503C104.39 18.9659 104.39 18.9813 104.39 18.9969C104.39 19.0122 104.389 19.0278 104.388 19.0434C104.388 19.0588 104.388 19.0744 104.387 19.09C104.387 19.1056 104.386 19.1212 104.385 19.1368C104.385 19.1524 104.384 19.168 104.383 19.1836C104.383 19.1992 104.382 19.2141 104.381 19.2297C104.381 19.2453 104.379 19.2611 104.379 19.2767C104.378 19.2923 104.377 19.3082 104.376 19.323C104.375 19.3389 104.374 19.3544 104.373 19.3693C104.372 19.3852 104.37 19.401 104.37 19.4166C104.368 19.4317 104.367 19.4475 104.366 19.4631C104.365 19.4782 104.363 19.494 104.363 19.5096C104.361 19.5247 104.36 19.5405 104.359 19.5564C104.357 19.5715 104.356 19.5873 104.354 19.6024C104.353 19.6182 104.351 19.6335 104.35 19.6484C104.348 19.6645 104.346 19.6803 104.345 19.6954C104.343 19.7114 104.341 19.7265 104.34 19.7416C104.337 19.757 104.336 19.7728 104.334 19.7881C104.333 19.8039 104.33 19.8193 104.329 19.8344C104.327 19.8504 104.324 19.8657 104.323 19.8808C104.321 19.8962 104.318 19.9115 104.316 19.9275C104.314 19.9428 104.313 19.9579 104.31 19.9733C104.307 19.9888 104.306 20.0046 104.304 20.02C104.301 20.0353 104.298 20.0508 104.296 20.0661C104.294 20.0815 104.292 20.0968 104.289 20.1124C104.287 20.1275 104.284 20.143 104.282 20.1583C104.279 20.1739 104.277 20.1885 104.274 20.2038C104.271 20.2193 104.268 20.2349 104.266 20.2502C104.263 20.2651 104.261 20.2811 104.258 20.2966C104.255 20.3122 104.253 20.3268 104.25 20.3423C104.246 20.3572 104.243 20.3727 104.241 20.3882C104.238 20.4038 104.235 20.4184 104.231 20.4342C104.228 20.449 104.226 20.4643 104.222 20.4801C104.219 20.4949 104.216 20.5105 104.213 20.5253C104.21 20.5408 104.207 20.5557 104.203 20.5714C104.2 20.5863 104.196 20.6013 104.193 20.6169C104.19 20.6317 104.187 20.6465 104.183 20.6623C104.18 20.6771 104.175 20.6924 104.172 20.7079C104.169 20.723 104.165 20.7378 104.162 20.7536C104.158 20.7686 104.155 20.7835 104.151 20.7985C104.147 20.8136 104.143 20.8286 104.139 20.8444C104.135 20.8587 104.131 20.8738 104.128 20.8888C104.124 20.9039 104.12 20.9196 104.116 20.9347C104.112 20.9497 104.108 20.9641 104.104 20.9791C104.1 20.9944 104.096 21.0095 104.092 21.0245C104.088 21.0396 104.083 21.0548 104.079 21.0694C104.075 21.0844 104.071 21.0995 104.066 21.1148C104.062 21.1291 104.058 21.1444 104.053 21.1596C104.049 21.174 104.044 21.1893 104.04 21.2036C104.036 21.2189 104.031 21.2341 104.026 21.2487C104.022 21.2633 104.018 21.2783 104.013 21.2929C104.008 21.3081 104.003 21.3227 103.999 21.338C103.994 21.3525 103.989 21.3671 103.985 21.3824C103.98 21.3969 103.974 21.4117 103.97 21.427C103.965 21.4415 103.96 21.4561 103.955 21.4707C103.95 21.4854 103.945 21.5007 103.94 21.5155C103.935 21.53 103.93 21.5446 103.925 21.5594C103.92 21.5739 103.914 21.5887 103.91 21.6033C103.904 21.6181 103.899 21.6328 103.894 21.6474C103.888 21.6622 103.883 21.6763 103.877 21.691C103.872 21.7058 103.867 21.7204 103.861 21.7352C103.856 21.7492 103.85 21.764 103.845 21.7788C103.839 21.7929 103.833 21.8076 103.828 21.8224C103.822 21.8365 103.817 21.8513 103.811 21.866C103.805 21.8801 103.8 21.8942 103.793 21.9092C103.788 21.9232 103.782 21.9383 103.776 21.9523C103.77 21.9664 103.765 21.9812 103.758 21.9955C103.753 22.0102 103.746 22.0245 103.74 22.0386C103.734 22.0536 103.729 22.0677 103.722 22.082C103.716 22.0962 103.71 22.1103 103.704 22.1246C103.697 22.1389 103.691 22.1529 103.685 22.1672C103.679 22.1815 103.672 22.1958 103.666 22.2101C103.66 22.2242 103.654 22.2385 103.647 22.2528C103.641 22.267 103.634 22.2806 103.628 22.2949C103.621 22.3092 103.614 22.3237 103.607 22.3373C103.601 22.3516 103.595 22.3659 103.588 22.3802C103.581 22.394 103.574 22.4083 103.568 22.4218C103.561 22.4361 103.554 22.4499 103.547 22.4635C103.541 22.4778 103.534 22.4916 103.527 22.5061C103.52 22.5197 103.513 22.5342 103.506 22.5478C103.499 22.5616 103.492 22.5759 103.485 22.5897C103.478 22.6035 103.471 22.617 103.464 22.6308C103.456 22.6446 103.449 22.6584 103.442 22.6722C103.435 22.6858 103.428 22.6996 103.42 22.7134C103.413 22.7272 103.406 22.741 103.398 22.7548C103.391 22.7686 103.384 22.7824 103.376 22.7962C103.369 22.8093 103.361 22.8231 103.354 22.8369C103.347 22.8507 103.338 22.864 103.331 22.8778C103.324 22.8916 103.316 22.9047 103.308 22.9187C103.301 22.9318 103.293 22.9456 103.285 22.9589C103.278 22.9727 103.269 22.986 103.262 22.9998C103.254 23.0131 103.246 23.0262 103.238 23.0395C103.23 23.0526 103.222 23.0666 103.214 23.0799C103.206 23.093 103.198 23.1071 103.19 23.1204C103.183 23.1335 103.174 23.147 103.166 23.1601C103.158 23.1734 103.149 23.186 103.141 23.2C103.134 23.2131 103.125 23.2257 103.117 23.239C103.108 23.2525 103.1 23.2656 103.092 23.2783C103.083 23.2918 103.075 23.3049 103.066 23.3184C103.058 23.3317 103.05 23.3443 103.041 23.3569C103.033 23.3702 103.025 23.3835 103.015 23.3963C103.007 23.4096 102.999 23.4223 102.99 23.4351C102.981 23.4484 102.973 23.461 102.964 23.4738C102.955 23.4871 102.946 23.4999 102.937 23.5128C102.929 23.5261 102.92 23.5387 102.911 23.5508C102.903 23.5641 102.893 23.5769 102.884 23.5898C102.876 23.6024 102.867 23.6152 102.857 23.628C102.849 23.6406 102.84 23.6534 102.831 23.6663C102.821 23.6784 102.813 23.691 102.803 23.704C102.794 23.7159 102.785 23.7287 102.776 23.7415C102.767 23.7544 102.757 23.7665 102.748 23.7793C102.739 23.7914 102.729 23.8042 102.72 23.8163C102.711 23.8292 102.701 23.8413 102.692 23.8534C102.682 23.8664 102.673 23.8786 102.663 23.8907C102.654 23.9028 102.645 23.9156 102.635 23.9277C102.625 23.94 102.616 23.9521 102.606 23.9643C102.597 23.9773 102.587 23.9887 102.578 24.0008C102.567 24.0132 102.557 24.0255 102.548 24.0376C102.539 24.0497 102.528 24.0621 102.519 24.0742C102.509 24.0858 102.499 24.0981 102.489 24.1102C102.479 24.1219 102.469 24.134 102.459 24.1456C102.449 24.158 102.44 24.1701 102.429 24.1817C102.419 24.194 102.409 24.2056 102.399 24.2173C102.388 24.2296 102.379 24.241 102.369 24.2526C102.358 24.265 102.348 24.2766 102.338 24.2882C102.327 24.2999 102.317 24.3115 102.308 24.3229C102.297 24.3345 102.286 24.3471 102.276 24.358C102.266 24.3703 102.255 24.3812 102.245 24.3929C102.235 24.4045 102.224 24.4161 102.214 24.4277C102.204 24.4394 102.192 24.4505 102.182 24.4621C102.172 24.473 102.161 24.4847 102.15 24.4965C102.14 24.5074 102.129 24.5193 102.118 24.5309C102.108 24.5418 102.097 24.553 102.086 24.5646C102.076 24.5755 102.064 24.5867 102.054 24.5983C102.043 24.6094 102.032 24.6203 102.021 24.6315C102.011 24.6424 102 24.6542 101.989 24.6645C101.978 24.6756 101.966 24.6867 101.956 24.6983C101.945 24.7088 101.933 24.7199 101.922 24.7311C101.912 24.742 101.9 24.7531 101.89 24.764C101.878 24.7745 101.867 24.7856 101.856 24.7967C101.845 24.807 101.833 24.8183 101.822 24.8285C101.811 24.8397 101.8 24.8501 101.788 24.8605C101.777 24.8717 101.766 24.8828 101.755 24.893C101.743 24.9037 101.732 24.9139 101.721 24.9243C101.709 24.9357 101.698 24.9459 101.686 24.9565C101.674 24.967 101.663 24.9774 101.651 24.9878C101.64 24.9983 101.629 25.0087 101.617 25.0191C101.605 25.0298 101.593 25.0402 101.582 25.0506C101.57 25.0604 101.559 25.0708 101.547 25.0814C101.535 25.0912 101.524 25.1016 101.512 25.1113C101.5 25.122 101.488 25.1324 101.476 25.1424C101.464 25.1521 101.453 25.1625 101.44 25.1725C101.429 25.1822 101.417 25.1926 101.405 25.2026C101.393 25.2125 101.381 25.2229 101.369 25.2327C101.357 25.2426 101.345 25.2523 101.333 25.2623C101.321 25.272 101.309 25.282 101.297 25.2917C101.285 25.3016 101.273 25.3116 101.261 25.3206C101.248 25.3305 101.236 25.3405 101.224 25.3502C101.212 25.3594 101.199 25.3694 101.188 25.3791C101.175 25.3883 101.163 25.3983 101.15 25.4075C101.138 25.4175 101.126 25.4265 101.113 25.4357C101.101 25.4457 101.088 25.4549 101.076 25.4639C101.064 25.4732 101.051 25.4831 101.039 25.4924C101.026 25.5016 101.014 25.5108 101.001 25.5201C100.988 25.5293 100.976 25.5385 100.963 25.5478C100.951 25.557 100.938 25.5662 100.925 25.5755C100.913 25.584 100.9 25.5933 100.887 25.6025C100.875 25.611 100.862 25.621 100.85 25.6295C100.837 25.6387 100.824 25.6473 100.811 25.6558C100.799 25.6651 100.786 25.6743 100.773 25.683C100.761 25.6914 100.747 25.7008 100.734 25.7093C100.722 25.7179 100.709 25.7264 100.695 25.7352C100.682 25.7437 100.67 25.7529 100.657 25.7608C100.644 25.7702 100.631 25.7781 100.618 25.7866C100.605 25.7951 100.591 25.8039 100.579 25.8124C100.566 25.8209 100.552 25.829 100.539 25.8375C100.526 25.8461 100.513 25.8548 100.5 25.8626C100.487 25.8712 100.473 25.8792 100.461 25.8877C100.447 25.8965 100.434 25.9043 100.42 25.9124C100.408 25.9209 100.394 25.9282 100.381 25.9368C100.367 25.9448 100.354 25.9526 100.341 25.9605C100.328 25.9692 100.315 25.977 100.301 25.9851C100.287 25.9931 100.274 26.0002 100.26 26.0083C100.247 26.0168 100.233 26.0242 100.22 26.0322C100.207 26.04 100.193 26.0472 100.18 26.0552C100.166 26.0626 100.153 26.0704 100.139 26.0777C100.125 26.0858 100.112 26.0929 100.098 26.1009C100.084 26.1083 100.071 26.1161 100.057 26.1234C100.043 26.1308 100.03 26.1379 100.016 26.1459C100.002 26.1533 99.9884 26.1606 99.9752 26.1678C99.9612 26.1751 99.9473 26.1824 99.934 26.1896C99.9201 26.1969 99.9062 26.2042 99.8922 26.2116C99.8783 26.2189 99.865 26.226 99.8509 26.2327C99.8369 26.24 99.823 26.2473 99.8088 26.254C99.7956 26.2611 99.7815 26.2677 99.7675 26.2751C99.7534 26.2817 99.7392 26.2884 99.7253 26.2957C99.7118 26.3021 99.6977 26.3087 99.6837 26.3161C99.6696 26.3227 99.6554 26.3293 99.6412 26.336C99.6271 26.3426 99.6136 26.3491 99.5995 26.3557C99.5846 26.3625 99.5712 26.3689 99.557 26.3756C99.5429 26.3822 99.5287 26.3888 99.5145 26.3955C99.5004 26.4021 99.4862 26.4088 99.4719 26.4147C99.4577 26.4213 99.4433 26.4273 99.4292 26.4339C99.415 26.4405 99.4007 26.4465 99.3865 26.4531C99.3721 26.459 99.3578 26.4649 99.3436 26.4716C99.3292 26.4775 99.3149 26.4834 99.3007 26.4901C99.2863 26.496 99.272 26.5019 99.2576 26.5079C99.2434 26.5145 99.2288 26.5197 99.2145 26.5256C99.2003 26.5323 99.1857 26.5375 99.1714 26.5434C99.1572 26.5501 99.1424 26.5546 99.128 26.5605C99.1139 26.5672 99.0993 26.5724 99.0847 26.5776C99.0706 26.5843 99.0557 26.5888 99.0407 26.5949C99.0265 26.6016 99.0117 26.6061 98.9971 26.6113C98.983 26.6179 98.9682 26.6225 98.9536 26.6277C98.9388 26.6322 98.9246 26.6388 98.91 26.6441C98.8952 26.6486 98.8802 26.6547 98.8656 26.66C98.8508 26.6645 98.8364 26.6704 98.8216 26.6749C98.8068 26.6794 98.7926 26.6861 98.7778 26.6906C98.763 26.6951 98.7482 26.702 98.7334 26.7065C98.7186 26.711 98.7044 26.7177 98.6896 26.7222C98.6748 26.7267 98.6607 26.7333 98.6459 26.7378C98.6311 26.7424 98.6156 26.7471 98.6008 26.7516C98.586 26.7561 98.5711 26.7607 98.5563 26.7652C98.5415 26.7697 98.5267 26.7742 98.5119 26.7787C98.5028 26.7815 98.4943 26.7841 98.4859 26.7867C98.4711 26.7912 98.4563 26.7958 98.4415 26.8003C98.4267 26.8048 98.4112 26.8095 98.3964 26.814C98.3816 26.8186 98.3668 26.8231 98.352 26.8276C98.3371 26.8321 98.3223 26.8367 98.3075 26.8412C98.2927 26.8457 98.2766 26.8483 98.2618 26.8529C98.247 26.8574 98.2315 26.8598 98.2167 26.8643C98.2019 26.8688 98.1865 26.8712 98.1717 26.8758C98.1569 26.8803 98.1407 26.8829 98.1259 26.8874C98.1111 26.8919 98.0959 26.895 98.0811 26.8996C98.0663 26.9041 98.0509 26.9065 98.0358 26.9103C98.021 26.9148 98.0049 26.9174 97.9899 26.9213C97.9751 26.9258 97.9596 26.9282 97.9446 26.932C97.9294 26.9351 97.9146 26.9396 97.8993 26.9427C97.8839 26.9452 97.8691 26.9497 97.8539 26.9528C97.8386 26.9559 97.8229 26.9599 97.8077 26.963C97.7929 26.9652 97.7779 26.9691 97.762 26.9724C97.7465 26.9748 97.7315 26.9786 97.7163 26.9817C97.7008 26.9841 97.6858 26.988 97.6706 26.9911C97.6551 26.9935 97.6401 26.9973 97.6247 26.9997C97.6094 27.0028 97.5942 27.0059 97.579 27.009C97.5633 27.0107 97.5483 27.0146 97.5331 27.0177C97.5176 27.0201 97.5022 27.0225 97.4869 27.0256C97.4715 27.028 97.4567 27.0302 97.4408 27.0335C97.4254 27.0359 97.4106 27.0381 97.3952 27.0405C97.3792 27.0438 97.3645 27.046 97.3488 27.0477C97.3336 27.0508 97.3182 27.0533 97.3025 27.055C97.2871 27.0574 97.2716 27.0598 97.2561 27.0622C97.2407 27.0646 97.226 27.0668 97.2103 27.0685C97.1949 27.0709 97.1794 27.0733 97.1637 27.075C97.1483 27.0774 97.1328 27.0798 97.1179 27.0813C97.1024 27.0837 97.0868 27.0854 97.0711 27.0871C97.0555 27.0888 97.04 27.0912 97.0251 27.0927C97.0096 27.0951 96.9939 27.0968 96.979 27.0983C96.9626 27.1002 96.9477 27.1017 96.932 27.1034C96.9163 27.1051 96.9014 27.1066 96.8857 27.1083C96.87 27.11 96.8551 27.1115 96.8392 27.1125C96.8238 27.1149 96.8086 27.1157 96.7929 27.1174C96.7771 27.1184 96.7614 27.1201 96.7462 27.1209C96.7306 27.1226 96.7154 27.1233 96.6997 27.125C96.6839 27.126 96.6687 27.1268 96.653 27.1285C96.6378 27.1293 96.622 27.1303 96.6063 27.132C96.5911 27.1328 96.5753 27.1338 96.5601 27.1346C96.5442 27.1356 96.5283 27.1366 96.5131 27.1373C96.4973 27.1383 96.4821 27.1391 96.4662 27.1401C96.451 27.1409 96.435 27.1412 96.4198 27.142C96.4046 27.1428 96.3887 27.1438 96.3733 27.1438C96.3575 27.1448 96.3423 27.1456 96.3269 27.1457C96.3108 27.146 96.2956 27.1468 96.2795 27.1471C96.2644 27.1478 96.249 27.1479 96.2329 27.1482C96.2175 27.1483 96.2023 27.1491 96.1862 27.1494C96.1708 27.1495 96.1555 27.1495 96.1394 27.1498C96.124 27.1499 96.1086 27.15 96.0932 27.15C96.0771 27.1503 96.0617 27.1504 96.0463 27.1505C96.0309 27.1506 96.0149 27.1509 96.0002 27.1507C95.9839 27.1503 95.9685 27.1504 95.9529 27.1498C95.9375 27.1499 95.9219 27.1492 95.9065 27.1493C95.8911 27.1494 95.8755 27.1487 95.8592 27.1483C95.8438 27.1484 95.8289 27.1476 95.8126 27.1472C95.7972 27.1472 95.7816 27.1466 95.766 27.146C95.7511 27.1451 95.7355 27.1445 95.7192 27.1441C95.7036 27.1435 95.688 27.1429 95.6731 27.142C95.6575 27.1414 95.6419 27.1408 95.6261 27.1394C95.6105 27.1388 95.5949 27.1382 95.5793 27.1375C95.5634 27.1362 95.5485 27.1354 95.5329 27.1347C95.518 27.1339 95.5022 27.1326 95.4866 27.132C95.4708 27.1306 95.4552 27.13 95.4401 27.1284C95.4243 27.1271 95.4087 27.1265 95.3936 27.1249C95.3779 27.1243 95.3619 27.1223 95.347 27.1214C95.3312 27.1201 95.3154 27.1188 95.3003 27.1172C95.2844 27.1159 95.2693 27.1144 95.2535 27.113C95.2384 27.1115 95.2224 27.1094 95.2073 27.1079C95.1914 27.1066 95.1763 27.105 95.1603 27.103C95.1452 27.1014 95.1301 27.0999 95.114 27.0978C95.0989 27.0963 95.0829 27.0943 95.0678 27.0927C95.0527 27.0912 95.0373 27.0889 95.0215 27.0876C95.0062 27.0853 94.9901 27.0833 94.9748 27.081C94.9595 27.0788 94.9444 27.0772 94.929 27.075C94.9139 27.0735 94.8979 27.0714 94.8826 27.0692C94.8672 27.0669 94.8519 27.0646 94.8366 27.0624C94.8212 27.0601 94.8057 27.0572 94.7904 27.0549C94.775 27.0527 94.7597 27.0504 94.7444 27.0482C94.7284 27.0462 94.7137 27.0437 94.6982 27.0407C94.6829 27.0385 94.6673 27.0355 94.652 27.0333C94.6364 27.0303 94.6211 27.0281 94.6056 27.0251C94.5902 27.0229 94.5754 27.0197 94.5599 27.0167C94.5445 27.0145 94.529 27.0115 94.5141 27.0083C94.4988 27.0061 94.4833 27.0031 94.4677 27.0002C94.4529 26.997 94.4373 26.9941 94.4225 26.9909C94.407 26.9879 94.3921 26.9848 94.3766 26.9818C94.361 26.9789 94.346 26.975 94.3304 26.972C94.3156 26.9688 94.3008 26.9657 94.285 26.962C94.2702 26.9588 94.2546 26.9559 94.2396 26.952C94.224 26.949 94.209 26.9452 94.1941 26.942C94.1786 26.939 94.1635 26.9352 94.1487 26.932C94.1329 26.9283 94.1179 26.9245 94.103 26.9213C94.0878 26.9167 94.0729 26.9135 94.0579 26.9097C94.0421 26.906 94.0271 26.9021 94.012 26.8982C93.9972 26.8951 93.9821 26.8912 93.9668 26.8866C93.952 26.8834 93.9369 26.8796 93.9217 26.875C93.9066 26.8711 93.8916 26.8673 93.8765 26.8634C93.8615 26.8595 93.8462 26.8549 93.8311 26.851C93.8168 26.8469 93.8015 26.8424 93.7865 26.8385C93.7712 26.8339 93.7568 26.8298 93.7418 26.8259C93.7265 26.8213 93.7122 26.8173 93.6969 26.8127C93.6816 26.8081 93.6666 26.8042 93.652 26.7994C93.6367 26.7948 93.6222 26.79 93.6071 26.7862C93.5926 26.7814 93.5773 26.7768 93.5627 26.772C93.5474 26.7674 93.5329 26.7626 93.5183 26.7578C93.503 26.7532 93.4885 26.7485 93.4732 26.7439C93.4586 26.7391 93.4441 26.7343 93.4293 26.7288C93.4147 26.724 93.3995 26.7194 93.3849 26.7146C93.3701 26.7091 93.3556 26.7043 93.341 26.6995C93.3262 26.694 93.3109 26.6894 93.2969 26.6837C93.2816 26.6791 93.2668 26.6736 93.2523 26.6689C93.2382 26.6631 93.2229 26.6586 93.2088 26.6528C93.1941 26.6473 93.1793 26.6418 93.1645 26.6363C93.1499 26.6315 93.1352 26.626 93.1204 26.6205C93.1063 26.6148 93.0915 26.6093 93.077 26.6045C93.0627 26.5981 93.0481 26.5933 93.0338 26.5869C93.019 26.5814 93.0049 26.5756 92.9902 26.5701C92.9754 26.5646 92.9613 26.5589 92.947 26.5525C92.9322 26.547 92.9175 26.5415 92.9034 26.5358C92.8891 26.5294 92.8743 26.5239 92.86 26.5175C92.8459 26.5117 92.8312 26.5062 92.8169 26.4998C92.8028 26.4941 92.7878 26.4879 92.7744 26.482C92.7599 26.4748 92.7452 26.4694 92.7318 26.4634C92.7166 26.4565 92.7025 26.4508 92.6882 26.4444C92.6741 26.4387 92.6598 26.4322 92.6456 26.4258C92.6313 26.4194 92.617 26.413 92.6027 26.4066C92.5891 26.3999 92.5748 26.3935 92.5605 26.3871C92.5462 26.3807 92.5326 26.374 92.5183 26.3676C92.5038 26.3605 92.4903 26.3538 92.476 26.3474C92.4617 26.341 92.4481 26.3344 92.4336 26.3272C92.42 26.3206 92.4055 26.3135 92.3919 26.3068C92.3776 26.3004 92.3638 26.2931 92.3502 26.2864C92.3357 26.2793 92.3221 26.2727 92.3076 26.2656C92.2938 26.2582 92.2802 26.2516 92.2664 26.2442C92.2529 26.2376 92.2384 26.2305 92.2248 26.2239C92.211 26.2165 92.1972 26.2092 92.1834 26.2018C92.1696 26.1945 92.1558 26.1871 92.142 26.1798C92.1284 26.1732 92.1144 26.1651 92.1008 26.1585C92.0868 26.1504 92.0737 26.1429 92.0599 26.1356C92.0461 26.1282 92.0323 26.1209 92.0185 26.1135C92.0054 26.106 91.9913 26.0979 91.9775 26.0906C91.9644 26.083 91.9506 26.0757 91.9373 26.0674C91.9235 26.0601 91.9104 26.0525 91.8964 26.0445C91.8833 26.0369 91.8695 26.0296 91.8562 26.0213C91.8429 26.0131 91.8291 26.0057 91.8158 25.9975C91.8027 25.9899 91.7887 25.9819 91.7754 25.9736C91.7623 25.9661 91.749 25.9578 91.7356 25.9495C91.7225 25.942 91.7092 25.9337 91.6959 25.9254C91.6826 25.9172 91.6695 25.9096 91.6562 25.9014C91.6429 25.8931 91.6296 25.8848 91.6163 25.8766C91.603 25.8683 91.5904 25.8599 91.577 25.8516C91.5637 25.8433 91.5504 25.8351 91.5378 25.8266C91.5245 25.8183 91.511 25.8094 91.4984 25.8009C91.4851 25.7926 91.4725 25.7842 91.4589 25.7752C91.4463 25.7667 91.433 25.7585 91.4204 25.75C91.4069 25.741 91.3943 25.7325 91.3815 25.7234C91.3688 25.7149 91.3553 25.7059 91.3427 25.6975C91.3301 25.689 91.3173 25.6798 91.3045 25.6706C91.2919 25.6621 91.2783 25.6532 91.2662 25.6438C91.2536 25.6353 91.2401 25.6263 91.2273 25.6172C91.2154 25.6085 91.2025 25.5993 91.1897 25.5901C91.1771 25.5816 91.1643 25.5724 91.1522 25.5631C91.1394 25.5539 91.1265 25.5447 91.1144 25.5353C91.1016 25.5261 91.0888 25.5169 91.0769 25.5082C91.0638 25.4983 91.0517 25.489 91.0389 25.4798C91.0268 25.4704 91.0146 25.461 91.0018 25.4518C90.9897 25.4424 90.9776 25.433 90.9646 25.4231C90.9524 25.4137 90.9403 25.4043 90.9275 25.3952C90.9152 25.3851 90.903 25.3756 90.8909 25.3663C90.8786 25.3562 90.8665 25.3468 90.8544 25.3374C90.842 25.3273 90.8299 25.3179 90.8183 25.3076C90.8055 25.2984 90.7938 25.2881 90.7817 25.2787C90.7694 25.2686 90.7573 25.2592 90.7457 25.2489C90.7333 25.2387 90.7212 25.2294 90.7096 25.2191C90.6975 25.2097 90.6858 25.1993 90.6735 25.1892C90.6621 25.1796 90.6505 25.1693 90.6381 25.1592C90.6258 25.1491 90.6142 25.1388 90.6026 25.1285C90.5909 25.1182 90.5795 25.1086 90.5672 25.0985C90.5553 25.0874 90.5439 25.0778 90.5323 25.0675C90.5207 25.0572 90.509 25.0469 90.4974 25.0366C90.4858 25.0262 90.474 25.0152 90.4623 25.0049C90.4507 24.9946 90.4398 24.9841 90.4281 24.9738C90.4165 24.9634 90.4047 24.9524 90.393 24.9421C90.3821 24.9316 90.3705 24.9213 90.3594 24.91C90.3477 24.8997 90.3361 24.8894 90.325 24.8782C90.314 24.8676 90.3024 24.8573 90.2913 24.8461C90.2797 24.8358 90.2685 24.8245 90.2576 24.814C90.2467 24.8035 90.2355 24.7922 90.2239 24.7819C90.2128 24.7707 90.2016 24.7594 90.1907 24.7489C90.1796 24.7377 90.1686 24.7271 90.1575 24.7159C90.1466 24.7054 90.1355 24.6941 90.1243 24.6829C90.1132 24.6717 90.103 24.6609 90.0918 24.6497C90.0807 24.6384 90.0703 24.627 90.0593 24.6165C90.0482 24.6052 90.037 24.594 90.0266 24.5825C90.0164 24.5718 90.0051 24.5598 89.9946 24.5484C89.9835 24.5372 89.9733 24.5264 89.9621 24.5152C89.9517 24.5037 89.9412 24.4923 89.9308 24.4808C89.9202 24.4687 89.9093 24.4581 89.8988 24.4467C89.8884 24.4352 89.8779 24.4238 89.8673 24.4116C89.8569 24.4002 89.8464 24.3887 89.836 24.3773C89.8256 24.3658 89.8156 24.3535 89.8052 24.342C89.7948 24.3306 89.7843 24.3191 89.7746 24.3074C89.764 24.2953 89.7542 24.2836 89.7438 24.2722C89.7331 24.26 89.7234 24.2484 89.713 24.2369C89.7033 24.2252 89.6926 24.2131 89.6829 24.2014C89.6729 24.189 89.6625 24.1776 89.6526 24.1652C89.6428 24.1535 89.6329 24.1412 89.6225 24.1297C89.6132 24.1172 89.6035 24.1055 89.5928 24.0933C89.5831 24.0817 89.5732 24.0693 89.5635 24.0576C89.5542 24.045 89.5436 24.0329 89.5345 24.021C89.5246 24.0086 89.5149 23.997 89.5056 23.9844C89.4957 23.972 89.486 23.9603 89.4767 23.9478C89.4668 23.9354 89.4575 23.9228 89.4478 23.9111C89.4379 23.8988 89.4286 23.8862 89.4194 23.8736C89.4102 23.861 89.4002 23.8486 89.3912 23.8367C89.3819 23.8242 89.3727 23.8116 89.3628 23.7992C89.3535 23.7866 89.3443 23.774 89.3351 23.7614C89.3258 23.7489 89.3168 23.737 89.3076 23.7244C89.2981 23.7111 89.2889 23.6985 89.2803 23.6857C89.2713 23.6738 89.2621 23.6612 89.2526 23.648C89.2441 23.6352 89.2348 23.6226 89.2265 23.6105C89.2171 23.5972 89.2078 23.5846 89.1993 23.5718C89.1901 23.5592 89.1815 23.5464 89.1723 23.5338C89.1638 23.521 89.155 23.5075 89.1465 23.4947C89.1372 23.4821 89.1287 23.4693 89.1199 23.4558C89.1114 23.443 89.1029 23.4302 89.0944 23.4174C89.0858 23.4046 89.0773 23.3918 89.0685 23.3783C89.06 23.3655 89.0515 23.3527 89.0427 23.3392C89.0349 23.3262 89.0261 23.3127 89.0176 23.2999C89.0098 23.2869 89.001 23.2734 88.9925 23.2606C88.9847 23.2475 88.9766 23.2338 88.9681 23.221C88.9603 23.208 88.9515 23.1945 88.9437 23.1815C88.9356 23.1678 88.9278 23.1547 88.9191 23.1412C88.9112 23.1282 88.9025 23.1147 88.8947 23.1017C88.8866 23.088 88.8795 23.0747 88.871 23.0619C88.8629 23.0482 88.8549 23.0345 88.847 23.0215C88.8397 23.0076 88.8317 22.9938 88.8238 22.9808C88.8158 22.9671 88.8087 22.9539 88.8006 22.9401C88.7928 22.9271 88.7854 22.9132 88.7774 22.8995C88.7696 22.8864 88.7622 22.8725 88.7549 22.8586C88.7469 22.8448 88.7397 22.8316 88.7324 22.8177C88.7253 22.8045 88.7172 22.7907 88.7099 22.7768C88.7028 22.7636 88.6954 22.7496 88.6881 22.7357C88.681 22.7225 88.6734 22.7078 88.6663 22.6946C88.6589 22.6807 88.6516 22.6667 88.6445 22.6535C88.6371 22.6395 88.6298 22.6256 88.6232 22.6115C88.6158 22.5975 88.6087 22.5843 88.6021 22.5701C88.5947 22.5562 88.5874 22.5423 88.5808 22.5281C88.5734 22.5142 88.567 22.5007 88.5604 22.4866C88.5537 22.4724 88.5464 22.4585 88.5398 22.4443C88.5331 22.4302 88.5258 22.4162 88.5194 22.4028C88.5127 22.3886 88.5061 22.3745 88.4995 22.3603C88.4928 22.3462 88.4862 22.332 88.4796 22.3179C88.4736 22.3035 88.4663 22.2896 88.4604 22.2752C88.4537 22.2611 88.4471 22.2469 88.4405 22.2328C88.4345 22.2184 88.4281 22.205 88.4222 22.1906C88.4153 22.1757 88.4094 22.1614 88.403 22.1479C88.3971 22.1335 88.3902 22.1187 88.3843 22.1043C88.3786 22.0907 88.3726 22.0763 88.3665 22.0612C88.3608 22.0476 88.3541 22.0334 88.3482 22.019C88.3421 22.004 88.3361 21.9896 88.3302 21.9752C88.3243 21.9609 88.3186 21.9472 88.3124 21.9321C88.3065 21.9178 88.3013 21.9032 88.2953 21.8888C88.2894 21.8744 88.2842 21.8599 88.2782 21.8455C88.273 21.8309 88.2671 21.8166 88.2612 21.8022C88.2557 21.7869 88.25 21.7732 88.2448 21.7586C88.2387 21.7436 88.2341 21.7288 88.2282 21.7144C88.223 21.6998 88.2177 21.6853 88.2125 21.6707C88.2066 21.6563 88.2014 21.6417 88.1959 21.6264C88.1907 21.6118 88.1855 21.5973 88.1803 21.5827C88.175 21.5681 88.1705 21.5533 88.1653 21.5387C88.1601 21.5241 88.1555 21.5093 88.1503 21.4948C88.1451 21.4802 88.1404 21.4647 88.1351 21.4501C88.1299 21.4355 88.1254 21.4207 88.1209 21.4059C88.1156 21.3913 88.1111 21.3765 88.1059 21.3619C88.1012 21.3464 88.0966 21.3317 88.0921 21.3169C88.0876 21.3021 88.0824 21.2875 88.0779 21.2727C88.0753 21.2642 88.0727 21.2558 88.0699 21.2466C88.0654 21.2318 88.0609 21.217 88.0563 21.2022C88.0518 21.1874 88.0473 21.1726 88.0435 21.1576C88.0387 21.1421 88.0342 21.1273 88.0304 21.1123C88.0259 21.0975 88.0221 21.0825 88.0176 21.0677C88.0137 21.0527 88.0092 21.0379 88.0054 21.0229C88.0007 21.0074 87.9969 20.9924 87.993 20.9773C87.9892 20.9623 87.9847 20.9475 87.9809 20.9325C87.9771 20.9175 87.9733 20.9025 87.9692 20.8868C87.9654 20.8718 87.9616 20.8567 87.9578 20.8417C87.954 20.8267 87.9502 20.8117 87.9463 20.7967C87.9425 20.7817 87.9387 20.7667 87.9349 20.7516C87.9318 20.7364 87.9278 20.7207 87.9247 20.7055C87.9208 20.6905 87.9177 20.6752 87.9139 20.6602C87.9108 20.645 87.907 20.63 87.9039 20.6147C87.9008 20.5995 87.897 20.5845 87.8938 20.5693C87.8905 20.5534 87.8876 20.5388 87.8838 20.5238C87.8805 20.5079 87.8774 20.4927 87.8745 20.4781C87.8712 20.4622 87.869 20.4475 87.8656 20.4315C87.8625 20.4163 87.8596 20.4018 87.8565 20.3865C87.8532 20.3706 87.8508 20.3552 87.8477 20.3399C87.8446 20.3247 87.8422 20.3093 87.839 20.294C87.8369 20.2793 87.8338 20.2641 87.8311 20.2479C87.8289 20.2332 87.8258 20.218 87.8234 20.2025C87.821 20.1871 87.8179 20.1718 87.8155 20.1564C87.8131 20.141 87.8107 20.1255 87.8083 20.1101C87.8059 20.0946 87.8035 20.0792 87.8011 20.0637C87.7987 20.0483 87.7963 20.0329 87.7941 20.0181C87.7917 20.0027 87.79 19.987 87.7876 19.9716C87.7852 19.9561 87.7828 19.9407 87.7811 19.925C87.7794 19.9094 87.7772 19.8946 87.7755 19.879C87.7731 19.8635 87.7714 19.8479 87.769 19.8324C87.7675 19.8175 87.7658 19.8018 87.7634 19.7864C87.7617 19.7707 87.76 19.7551 87.7585 19.7401C87.7568 19.7244 87.7551 19.7088 87.7536 19.6938C87.7519 19.6782 87.7502 19.6625 87.7485 19.6468C87.7468 19.6312 87.7453 19.6162 87.7436 19.6006C87.7419 19.5849 87.7411 19.5697 87.7394 19.5541C87.7377 19.5384 87.7369 19.5233 87.7352 19.5076C87.7345 19.4924 87.7328 19.4768 87.7318 19.4609C87.7301 19.4452 87.7293 19.4301 87.7283 19.4142C87.7268 19.3993 87.7258 19.3834 87.725 19.3682C87.724 19.3523 87.7233 19.3372 87.7223 19.3213C87.7213 19.3054 87.7205 19.2902 87.7188 19.2746C87.7187 19.2592 87.7177 19.2433 87.7169 19.2282C87.7159 19.2123 87.7151 19.1971 87.7151 19.1817C87.7141 19.1658 87.7133 19.1507 87.7123 19.1348C87.7122 19.1194 87.7112 19.1036 87.7112 19.0882C87.7104 19.073 87.7101 19.0569 87.71 19.0415C87.709 19.0257 87.7089 19.0103 87.7082 18.9951C87.7079 18.979 87.7078 18.9636 87.7077 18.9482C87.7074 18.9321 87.7074 18.9168 87.7066 18.9016C87.7063 18.8855 87.7062 18.8701 87.7061 18.8547C87.7068 18.8391 87.7067 18.8238 87.7064 18.8077C87.7063 18.7923 87.7063 18.7769 87.7069 18.7613C87.7066 18.7452 87.7067 18.7305 87.7071 18.7142C87.7071 18.6988 87.707 18.6834 87.7076 18.6678C87.7075 18.6525 87.7082 18.6369 87.7088 18.6213C87.7087 18.6059 87.7094 18.5903 87.71 18.5747C87.7097 18.5586 87.7105 18.5437 87.7112 18.5281C87.7118 18.5125 87.7124 18.4969 87.7128 18.4806C87.7137 18.4657 87.7143 18.4501 87.7149 18.4345C87.7156 18.4189 87.7162 18.4033 87.7168 18.3877C87.7175 18.3721 87.7188 18.3563 87.7196 18.3414C87.721 18.3256 87.7216 18.31 87.7222 18.2944C87.7231 18.2795 87.7244 18.2637 87.725 18.2481C87.7264 18.2322 87.7277 18.2164 87.7286 18.2015C87.7299 18.1857 87.7314 18.1706 87.7321 18.155C87.7334 18.1392 87.735 18.1241 87.7356 18.1085C87.7376 18.0924 87.7385 18.0776 87.7398 18.0617C87.7414 18.0466 87.7427 18.0308 87.7442 18.0157C87.7456 17.9999 87.7471 17.9848 87.7491 17.9687C87.7507 17.9536 87.752 17.9378 87.7534 17.922C87.7556 17.9067 87.7572 17.8916 87.7585 17.8758C87.7608 17.8604 87.7623 17.8453 87.7643 17.8293C87.7659 17.8142 87.7681 17.7989 87.7695 17.783C87.7717 17.7677 87.774 17.7524 87.776 17.7364C87.7776 17.7212 87.7798 17.7059 87.7821 17.6906C87.7834 17.6748 87.7859 17.6602 87.7881 17.6448C87.7902 17.6288 87.7924 17.6135 87.7947 17.5982C87.797 17.5828 87.7999 17.5673 87.8022 17.552C87.8044 17.5366 87.8067 17.5213 87.8089 17.506C87.8112 17.4907 87.8141 17.4751 87.8164 17.4598C87.8194 17.4442 87.8216 17.4289 87.8246 17.4134C87.8268 17.3981 87.8293 17.3834 87.832 17.3672C87.8352 17.3524 87.8375 17.337 87.8404 17.3215C87.8427 17.3062 87.8466 17.2911 87.8488 17.2758C87.8518 17.2602 87.8547 17.2447 87.8579 17.2299C87.8602 17.2145 87.864 17.1995 87.8663 17.1842C87.87 17.1684 87.8724 17.1538 87.8754 17.1382C87.8793 17.1232 87.8822 17.1076 87.8852 17.0921C87.8884 17.0773 87.8915 17.0624 87.8952 17.0467C87.8984 17.0318 87.9013 17.0163 87.9052 17.0012C87.9084 16.9864 87.912 16.9706 87.9152 16.9558C87.9184 16.941 87.922 16.9252 87.9259 16.9102C87.9291 16.8953 87.9328 16.8796 87.9367 16.8645C87.9398 16.8497 87.9437 16.8346 87.9476 16.8196C87.9512 16.8038 87.9551 16.7888 87.959 16.7737C87.9631 16.7594 87.9668 16.7436 87.9706 16.7286C87.9738 16.7137 87.9784 16.6985 87.9823 16.6834C87.9862 16.6684 87.99 16.6533 87.9939 16.6383C87.9987 16.6237 88.0024 16.6079 88.0065 16.5936C88.0104 16.5785 88.0149 16.5633 88.0188 16.5482C88.0236 16.5337 88.0275 16.5186 88.0321 16.5033C88.0362 16.489 88.0408 16.4737 88.0446 16.4587C88.0494 16.4441 88.054 16.4288 88.0579 16.4138C88.0627 16.3992 88.0673 16.384 88.0721 16.3694C88.076 16.3544 88.0815 16.3396 88.0853 16.3245C88.0901 16.31 88.0949 16.2954 88.0995 16.2801C88.1041 16.2649 88.1089 16.2503 88.1137 16.2357C88.1183 16.2205 88.1231 16.2059 88.1286 16.1911C88.1334 16.1766 88.1382 16.162 88.1435 16.1465C88.1483 16.132 88.1531 16.1174 88.1586 16.1026C88.1634 16.0881 88.1689 16.0733 88.1737 16.0587C88.1785 16.0442 88.184 16.0294 88.1888 16.0148C88.1943 16 88.1998 15.9853 88.2046 15.9707C88.2101 15.9559 88.2156 15.9411 88.2211 15.9264C88.2259 15.9118 88.2316 15.8977 88.2371 15.883C88.2426 15.8682 88.2481 15.8534 88.2539 15.8393C88.2594 15.8245 88.2649 15.8098 88.2706 15.7957C88.2761 15.7809 88.2818 15.7668 88.2873 15.7521C88.293 15.738 88.2992 15.723 88.305 15.7089C88.3105 15.6942 88.3162 15.6801 88.3226 15.6658C88.3281 15.651 88.3338 15.6369 88.34 15.6219C88.3458 15.6079 88.3522 15.5936 88.3579 15.5795C88.3641 15.5645 88.3698 15.5504 88.3763 15.5362C88.382 15.5221 88.3884 15.5078 88.3948 15.4935C88.4005 15.4794 88.407 15.4651 88.4134 15.4509C88.4198 15.4366 88.4255 15.4225 88.4327 15.408C88.4391 15.3937 88.4448 15.3796 88.4512 15.3653C88.4577 15.3511 88.4641 15.3368 88.4705 15.3225C88.4771 15.3089 88.4843 15.2944 88.4907 15.2801C88.4971 15.2658 88.5038 15.2522 88.5102 15.2379C88.5166 15.2237 88.5239 15.2099 88.5306 15.1963C88.537 15.182 88.5434 15.1677 88.5508 15.1539C88.5572 15.1396 88.5645 15.1258 88.5719 15.112C88.5785 15.0984 88.5857 15.0839 88.5923 15.0703C88.5987 15.0561 88.6061 15.0422 88.6134 15.0285C88.6208 15.0147 88.6274 15.0011 88.6347 14.9873C88.6421 14.9735 88.6492 14.959 88.6558 14.9454C88.6632 14.9316 88.6705 14.9178 88.6779 14.904C88.6852 14.8902 88.6926 14.8764 88.6999 14.8626C88.7075 14.8495 88.7148 14.8357 88.7222 14.8219C88.7295 14.8081 88.7371 14.795 88.7451 14.781C88.7518 14.7674 88.7598 14.7534 88.7674 14.7403C88.7747 14.7265 88.783 14.7132 88.7903 14.6994C88.7977 14.6856 88.8052 14.6725 88.8133 14.6585C88.8208 14.6454 88.8291 14.6321 88.8364 14.6183C88.8447 14.605 88.8523 14.5919 88.8603 14.5779C88.8679 14.5648 88.8761 14.5515 88.8837 14.5384C88.8924 14.5241 88.9 14.511 88.9083 14.4977C88.9158 14.4846 88.9241 14.4713 88.9324 14.458C88.9406 14.4447 88.9489 14.4314 88.9571 14.4181C88.9647 14.405 88.973 14.3917 88.9815 14.3791C88.9897 14.3658 88.998 14.3525 89.0062 14.3392C89.0145 14.3259 89.0228 14.3125 89.0312 14.2999C89.0402 14.2864 89.0487 14.2738 89.057 14.2605C89.0652 14.2472 89.0737 14.2346 89.0829 14.2218C89.0912 14.2084 89.1003 14.1956 89.1079 14.1825C89.1171 14.1697 89.1256 14.1571 89.1345 14.1436C89.143 14.131 89.152 14.1174 89.1607 14.1055C89.1696 14.092 89.1781 14.0794 89.1866 14.0668C89.1956 14.0533 89.205 14.0412 89.2135 14.0286C89.2226 14.0157 89.2318 14.0029 89.2403 13.9903C89.2495 13.9775 89.2587 13.9647 89.2679 13.9519C89.277 13.9391 89.2864 13.9269 89.2949 13.9143C89.3041 13.9015 89.3133 13.8887 89.3227 13.8766C89.3319 13.8638 89.341 13.8509 89.3504 13.8388C89.3596 13.826 89.369 13.8139 89.3782 13.8011C89.3876 13.7889 89.397 13.7768 89.4062 13.764C89.4156 13.7519 89.4257 13.7396 89.4351 13.7274C89.4443 13.7146 89.4537 13.7025 89.4638 13.6902C89.4732 13.6781 89.4826 13.6659 89.492 13.6538C89.5019 13.6408 89.5113 13.6287 89.5207 13.6166C89.5308 13.6042 89.5402 13.5921 89.5505 13.5805C89.5599 13.5684 89.57 13.5561 89.5794 13.5439C89.5895 13.5316 89.5991 13.5202 89.6092 13.5079C89.6195 13.4962 89.6289 13.4841 89.639 13.4718C89.6491 13.4595 89.6588 13.448 89.6689 13.4357C89.6792 13.4241 89.6895 13.4125 89.6989 13.4003C89.7092 13.3887 89.7195 13.3771 89.7297 13.3648C89.74 13.3531 89.7503 13.3415 89.7604 13.3292C89.7709 13.3183 89.7806 13.3069 89.7907 13.2945C89.8017 13.2827 89.812 13.271 89.8223 13.2594C89.8326 13.2478 89.843 13.2362 89.8533 13.2245C89.8638 13.2136 89.8741 13.202 89.8844 13.1904C89.8955 13.1785 89.9058 13.1669 89.9163 13.156C89.9266 13.1444 89.937 13.1327 89.9482 13.1216C89.9587 13.1107 89.9691 13.099 89.9801 13.0872C89.9906 13.0763 90.0012 13.0654 90.0122 13.0535C90.0227 13.0426 90.0339 13.0315 90.0443 13.0198C90.0555 13.0087 90.066 12.9978 90.0773 12.9866C90.0876 12.975 90.0989 12.9639 90.1094 12.9529C90.1206 12.9418 90.1312 12.9309 90.1424 12.9198C90.1536 12.9086 90.1649 12.8975 90.1754 12.8866C90.1869 12.8761 90.1974 12.8652 90.2086 12.8541C90.2199 12.8429 90.2313 12.8325 90.2419 12.8216C90.2531 12.8105 90.2646 12.8 90.2758 12.7889C90.2873 12.7784 90.2985 12.7673 90.3099 12.7569C90.3205 12.746 90.3329 12.736 90.3434 12.7251C90.3548 12.7147 90.367 12.704 90.3775 12.6931C90.3897 12.6824 90.4012 12.672 90.4124 12.6609C90.4238 12.6504 90.4353 12.64 90.447 12.6303C90.4584 12.6198 90.4699 12.6094 90.4813 12.599C90.4928 12.5886 90.5042 12.5781 90.5164 12.5675C90.5279 12.557 90.5395 12.5473 90.551 12.5369C90.5634 12.5269 90.5748 12.5165 90.587 12.5059C90.5986 12.4961 90.6101 12.4857 90.6225 12.4758C90.6339 12.4653 90.6456 12.4556 90.658 12.4457C90.6694 12.4352 90.6811 12.4255 90.6935 12.4155C90.7049 12.4051 90.7173 12.3952 90.7297 12.3852C90.7414 12.3755 90.7537 12.3656 90.7654 12.3558C90.7778 12.3459 90.7894 12.3362 90.8018 12.3262C90.8135 12.3165 90.8259 12.3065 90.8378 12.2975C90.8501 12.2876 90.8625 12.2776 90.8742 12.2679C90.8865 12.258 90.8991 12.2487 90.9115 12.2388C90.9234 12.2298 90.9358 12.2198 90.9481 12.2099C90.9607 12.2006 90.9726 12.1916 90.9852 12.1824C90.9976 12.1724 91.0102 12.1632 91.0221 12.1542C91.0346 12.1449 91.047 12.135 91.0596 12.1258C91.0722 12.1165 91.0848 12.1073 91.0974 12.098C91.11 12.0888 91.1226 12.0796 91.1352 12.0703C91.1477 12.0611 91.1603 12.0519 91.1729 12.0426C91.1857 12.0341 91.1983 12.0248 91.2109 12.0156C91.2235 12.0064 91.2363 11.9978 91.2489 11.9886C91.2615 11.9794 91.2741 11.9701 91.2869 11.9616C91.2997 11.953 91.3123 11.9438 91.3251 11.9353C91.3386 11.9265 91.3512 11.9173 91.364 11.9088C91.3768 11.9002 91.3903 11.8915 91.4029 11.8822C91.4159 11.8744 91.4285 11.8652 91.4415 11.8573C91.4548 11.8479 91.4676 11.8394 91.4806 11.8315C91.4934 11.823 91.507 11.8142 91.5198 11.8057C91.5326 11.7972 91.5463 11.7891 91.5591 11.7806C91.5719 11.7721 91.5847 11.7635 91.5984 11.7555C91.6119 11.7467 91.625 11.7389 91.6378 11.7304C91.6506 11.7218 91.6643 11.7138 91.678 11.7058C91.6908 11.6972 91.7046 11.6892 91.7176 11.6814C91.7304 11.6728 91.7441 11.6648 91.7578 11.6567C91.7708 11.6489 91.7846 11.6409 91.7976 11.633C91.8113 11.625 91.8243 11.6171 91.8381 11.6091C91.8511 11.6013 91.865 11.5939 91.8781 11.5861C91.8918 11.5781 91.9055 11.57 91.9187 11.5629C91.9325 11.5549 91.9455 11.547 91.9594 11.5397C91.9727 11.5326 91.9864 11.5245 92.0003 11.5172C92.014 11.5091 92.0273 11.502 92.041 11.494C92.055 11.4866 92.0682 11.4795 92.0821 11.4722C92.0961 11.4648 92.1091 11.457 92.123 11.4497C92.137 11.4423 92.1509 11.435 92.1642 11.4278C92.1781 11.4205 92.192 11.4132 92.206 11.4058C92.2201 11.3992 92.2334 11.3921 92.2473 11.3847C92.2613 11.3774 92.2754 11.3708 92.2893 11.3634C92.3033 11.3561 92.3167 11.3497 92.3309 11.343C92.3448 11.3357 92.359 11.3291 92.3722 11.3219C92.3871 11.3151 92.4005 11.3087 92.4147 11.302C92.4288 11.2954 92.443 11.2888 92.4569 11.2814C92.4711 11.2748 92.4853 11.2681 92.4987 11.2617C92.5126 11.2544 92.5268 11.2478 92.5412 11.2418C92.5553 11.2352 92.5695 11.2286 92.5836 11.2219C92.5978 11.2153 92.6122 11.2093 92.6263 11.2027C92.6405 11.1961 92.6548 11.1902 92.669 11.1835C92.6832 11.1769 92.6975 11.1709 92.7119 11.165C92.7254 11.1586 92.7404 11.1525 92.7548 11.1465C92.769 11.1399 92.7833 11.134 92.797 11.1283C92.8119 11.1214 92.8264 11.1162 92.8406 11.1095C92.855 11.1036 92.8693 11.0977 92.8837 11.0917C92.8981 11.0858 92.9127 11.0806 92.927 11.0747C92.9412 11.068 92.9558 11.0628 92.9701 11.0569C92.9843 11.0502 92.9991 11.0457 93.0135 11.0398C93.0278 11.0339 93.0424 11.0286 93.0568 11.0227C93.0712 11.0168 93.0867 11.012 93.101 11.0061C93.1152 10.9995 93.13 10.9949 93.1446 10.9897C93.1594 10.9852 93.1736 10.9786 93.1884 10.974C93.2032 10.9695 93.218 10.9627 93.2328 10.9582C93.2476 10.9536 93.2618 10.947 93.2766 10.9425C93.2914 10.9379 93.3055 10.9313 93.3203 10.9268C93.3351 10.9223 93.3493 10.9156 93.3641 10.9111C93.3796 10.9064 93.394 10.9005 93.4088 10.8959C93.4236 10.8914 93.4377 10.8848 93.4525 10.8803C93.4671 10.875 93.4826 10.8703 93.4976 10.8665C93.5122 10.8613 93.527 10.8567 93.542 10.8529C93.5566 10.8477 93.5714 10.8432 93.5865 10.8393C93.5956 10.8366 93.6041 10.834 93.6125 10.8314C93.6271 10.8262 93.6419 10.8216 93.6569 10.8178C93.6715 10.8126 93.6863 10.8081 93.7013 10.8043C93.7166 10.7988 93.7314 10.7943 93.7464 10.7905C93.761 10.7853 93.7758 10.7807 93.7909 10.7769C93.8057 10.7724 93.8218 10.7698 93.8366 10.7653C93.8514 10.7607 93.8666 10.7576 93.8814 10.7531C93.8962 10.7486 93.9117 10.7462 93.9265 10.7417C93.9413 10.7371 93.9574 10.7345 93.9722 10.73C93.987 10.7255 94.0025 10.7231 94.0173 10.7185C94.0321 10.714 94.0476 10.7116 94.0631 10.7069C94.0779 10.7024 94.0928 10.7009 94.1076 10.6963C94.1231 10.6916 94.1386 10.6892 94.1536 10.6854C94.169 10.683 94.1838 10.6785 94.1991 10.6753C94.2145 10.6729 94.2293 10.6684 94.2445 10.6653C94.2598 10.6622 94.2748 10.6584 94.29 10.6553C94.3062 10.6526 94.3205 10.649 94.3357 10.6459C94.3517 10.6426 94.3667 10.6388 94.3819 10.6357C94.3976 10.634 94.4126 10.6302 94.4278 10.6271C94.4431 10.6239 94.4583 10.6208 94.4735 10.6177C94.489 10.6153 94.5042 10.6122 94.5194 10.6091C94.5349 10.6067 94.5501 10.6036 94.5653 10.6005C94.5808 10.5981 94.596 10.5949 94.6115 10.5925C94.6267 10.5894 94.6421 10.587 94.6576 10.5846C94.6723 10.5824 94.6883 10.5791 94.703 10.5769C94.7185 10.5745 94.7339 10.5721 94.7494 10.5697C94.7646 10.5666 94.7802 10.5649 94.7957 10.5625C94.8109 10.5593 94.8266 10.5576 94.842 10.5552C94.8568 10.553 94.8722 10.5506 94.8879 10.5489C94.9033 10.5465 94.919 10.5448 94.9344 10.5424C94.9501 10.5407 94.9648 10.5385 94.9803 10.5361C94.996 10.5344 95.0114 10.532 95.0271 10.5303C95.0427 10.5286 95.0575 10.5264 95.0731 10.5247C95.0888 10.523 95.1042 10.5206 95.1199 10.5189C95.1349 10.5174 95.1505 10.5157 95.1662 10.514C95.1811 10.5125 95.1968 10.5108 95.2125 10.5091C95.2274 10.5076 95.2431 10.5059 95.259 10.5049C95.2746 10.5032 95.2896 10.5017 95.3055 10.5007C95.3211 10.499 95.3363 10.4982 95.352 10.4965C95.3678 10.4955 95.3828 10.4941 95.3987 10.4931C95.4143 10.4914 95.4295 10.4906 95.4454 10.4896C95.4611 10.4879 95.4762 10.4871 95.4921 10.4861C95.5071 10.4846 95.5229 10.4836 95.5381 10.4828C95.554 10.4818 95.5692 10.4811 95.585 10.4801C95.6002 10.4793 95.6161 10.4783 95.6322 10.478C95.6474 10.4772 95.6625 10.4764 95.6784 10.4754C95.6943 10.4744 95.7095 10.4736 95.7248 10.4736C95.7409 10.4733 95.7561 10.4725 95.7713 10.4717C95.7874 10.4714 95.8028 10.4713 95.8179 10.4705C95.834 10.4703 95.8492 10.4695 95.8653 10.4692C95.8807 10.4691 95.8961 10.469 95.9122 10.4687C95.9276 10.4687 95.9429 10.4686 95.9588 10.4676C95.9742 10.4675 95.9896 10.4674 96.005 10.4673C96.0204 10.4673 96.0365 10.467 96.0518 10.4669C96.0674 10.4675 96.0828 10.4675 96.0982 10.4674C96.1143 10.4671 96.1299 10.4677 96.1453 10.4676C96.1607 10.4676 96.1763 10.4682 96.1917 10.4681C96.2073 10.4687 96.2236 10.4691 96.2383 10.4693C96.2539 10.4699 96.2702 10.4703 96.2856 10.4702C96.3012 10.4709 96.3168 10.4715 96.3324 10.4721C96.348 10.4728 96.3636 10.4734 96.3792 10.474C96.3939 10.4741 96.4095 10.4748 96.4253 10.4761C96.4409 10.4767 96.4565 10.4773 96.4721 10.478C96.4877 10.4786 96.5033 10.4792 96.5191 10.4806C96.534 10.4814 96.5496 10.482 96.5655 10.4834C96.5811 10.484 96.596 10.4848 96.6118 10.4862C96.6276 10.4875 96.6432 10.4881 96.6581 10.489C96.6739 10.4903 96.6897 10.4916 96.7048 10.4932C96.7205 10.4938 96.7363 10.4951 96.7514 10.4967C96.7672 10.498 96.783 10.4993 96.7981 10.5009C96.814 10.5022 96.8291 10.5038 96.8449 10.5051C96.86 10.5066 96.8758 10.508 96.8909 10.5095C96.906 10.5111 96.9221 10.5131 96.9379 10.5144C96.953 10.516 96.9688 10.5173 96.9842 10.5196C96.9993 10.5211 97.0146 10.5234 97.0306 10.5254C97.0457 10.527 97.0616 10.5283 97.0769 10.5305C97.0922 10.5328 97.1076 10.535 97.1234 10.5364C97.1387 10.5386 97.154 10.5409 97.1691 10.5424C97.1845 10.5447 97.2005 10.5467 97.2158 10.549C97.2312 10.5512 97.2465 10.5535 97.2618 10.5557C97.2772 10.558 97.2925 10.5602 97.3078 10.5625C97.3231 10.5647 97.3392 10.5668 97.354 10.5699C97.3693 10.5722 97.3854 10.5742 97.4002 10.5774C97.4155 10.5796 97.4309 10.5819 97.4464 10.5848C97.462 10.5878 97.4773 10.5901 97.4928 10.593C97.5075 10.5955 97.523 10.5984 97.5385 10.6014C97.5539 10.6036 97.5694 10.6066 97.585 10.6096C97.5996 10.612 97.6151 10.615 97.63 10.6181C97.6455 10.6211 97.6611 10.624 97.6759 10.6272C97.6914 10.6302 97.7063 10.6333 97.7218 10.6363C97.7374 10.6393 97.7522 10.6424 97.7678 10.6454C97.7828 10.6493 97.7984 10.6522 97.8132 10.6554C97.828 10.6586 97.8438 10.6622 97.8588 10.6661C97.8744 10.6691 97.8892 10.6722 97.905 10.6759C97.9191 10.6793 97.9349 10.6829 97.9497 10.6861C97.9655 10.6898 97.9805 10.6937 97.9954 10.6968C98.0104 10.7007 98.0255 10.7046 98.0412 10.7082C98.0561 10.7114 98.0711 10.7153 98.0862 10.7192C98.1012 10.723 98.1163 10.7269 98.1314 10.7308C98.1464 10.7347 98.1615 10.7385 98.1765 10.7424C98.1916 10.7463 98.2068 10.7509 98.2219 10.7548C98.2369 10.7586 98.252 10.7625 98.2673 10.7671C98.2816 10.7712 98.2967 10.775 98.3119 10.7796C98.327 10.7835 98.3416 10.7883 98.3566 10.7922C98.3719 10.7968 98.3862 10.8008 98.4015 10.8054C98.4168 10.81 98.4318 10.8139 98.4464 10.8187C98.4617 10.8233 98.476 10.8274 98.4906 10.8321C98.5058 10.8367 98.5211 10.8413 98.5357 10.8461C98.5503 10.8509 98.5655 10.8555 98.5806 10.8594C98.5953 10.8649 98.6099 10.8697 98.6245 10.8745C98.6397 10.879 98.6543 10.8838 98.6691 10.8893C98.6844 10.8939 98.6989 10.8987 98.7135 10.9035C98.7283 10.909 98.7428 10.9138 98.7574 10.9186C98.7722 10.9241 98.7868 10.9289 98.8013 10.9337C98.8168 10.939 98.8316 10.9445 98.8454 10.9495C98.8609 10.9548 98.8748 10.9598 98.8896 10.9653C98.9043 10.9708 98.9191 10.9763 98.9337 10.9811C98.9485 10.9866 98.9633 10.9921 98.9773 10.9978C98.9921 11.0033 99.0069 11.0088 99.0207 11.0138C99.0357 11.02 99.0503 11.0248 99.0646 11.0312C99.0792 11.036 99.0939 11.0415 99.1082 11.0479C99.123 11.0534 99.1371 11.0592 99.1519 11.0647C99.1662 11.0711 99.1802 11.0768 99.195 11.0823C99.2093 11.0887 99.2241 11.0942 99.2384 11.1006C99.2525 11.1064 99.2665 11.1121 99.2815 11.1183C99.2956 11.124 99.3099 11.1304 99.324 11.1361C99.3383 11.1426 99.3523 11.1483 99.3666 11.1547C99.3816 11.1609 99.3959 11.1673 99.41 11.173C99.4243 11.1795 99.4388 11.1866 99.4529 11.1923C99.4664 11.1989 99.4814 11.2051 99.4957 11.2115C99.5093 11.2182 99.5236 11.2246 99.5379 11.231C99.5522 11.2375 99.5658 11.2441 99.5801 11.2505C99.5944 11.2569 99.6079 11.2636 99.6224 11.2707C99.6367 11.2771 99.6503 11.2837 99.6648 11.2909C99.6784 11.2975 99.6927 11.3039 99.7065 11.3113C99.7208 11.3177 99.7344 11.3243 99.7482 11.3317C99.7625 11.3381 99.7763 11.3454 99.7908 11.3525C99.8044 11.3592 99.8182 11.3665 99.8317 11.3732C99.8455 11.3805 99.86 11.3876 99.8736 11.3943C99.8874 11.4016 99.9012 11.409 99.915 11.4163C99.9286 11.4229 99.9426 11.431 99.9564 11.4383C99.97 11.4449 99.9838 11.4523 99.9976 11.4596C100.011 11.4672 100.025 11.4752 100.038 11.4819C100.052 11.4899 100.066 11.4973 100.079 11.5048C100.093 11.5121 100.107 11.5195 100.12 11.527C100.134 11.5351 100.148 11.5424 100.161 11.5507C100.175 11.558 100.188 11.5656 100.202 11.5736C100.215 11.5812 100.229 11.5885 100.242 11.5968C100.255 11.6043 100.269 11.6124 100.282 11.6199C100.296 11.6282 100.309 11.6358 100.323 11.6438C100.336 11.6521 100.349 11.6603 100.363 11.6679C100.376 11.6761 100.389 11.6844 100.402 11.6927C100.416 11.7009 100.429 11.7085 100.442 11.7167C100.455 11.725 100.469 11.7333 100.482 11.7415C100.495 11.7498 100.508 11.7583 100.521 11.7665C100.535 11.7748 100.548 11.783 100.561 11.7915C100.574 11.7998 100.587 11.808 100.6 11.8172C100.613 11.8255 100.626 11.834 100.639 11.8422C100.652 11.8514 100.665 11.8597 100.678 11.8681C100.691 11.8766 100.704 11.8856 100.717 11.894C100.73 11.9032 100.742 11.9117 100.756 11.9207C100.768 11.9291 100.781 11.9383 100.794 11.9468C100.807 11.956 100.819 11.9644 100.832 11.9736C100.845 11.9826 100.858 11.9918 100.87 12.0012C100.883 12.0096 100.896 12.0188 100.909 12.028C100.921 12.0365 100.933 12.0459 100.946 12.0551C100.959 12.0642 100.972 12.0734 100.984 12.0828C100.997 12.0913 101.01 12.1012 101.022 12.1099C101.035 12.1198 101.046 12.1284 101.06 12.1383C101.072 12.1477 101.084 12.1569 101.097 12.1663C101.109 12.1757 101.121 12.1851 101.134 12.1943C101.146 12.2044 101.158 12.2138 101.171 12.223C101.183 12.2331 101.195 12.2424 101.207 12.2518C101.22 12.2612 101.232 12.2713 101.244 12.2807C101.256 12.2908 101.268 12.3002 101.281 12.3103C101.292 12.3199 101.304 12.3293 101.317 12.3394C101.329 12.3488 101.34 12.3591 101.353 12.3692C101.365 12.3786 101.377 12.3887 101.389 12.3991C101.401 12.4085 101.413 12.4188 101.425 12.4289C101.436 12.4385 101.449 12.4486 101.46 12.4589C101.472 12.4692 101.484 12.4793 101.496 12.4896C101.507 12.4999 101.519 12.5095 101.531 12.5196C101.543 12.53 101.554 12.5403 101.566 12.5506C101.578 12.5609 101.589 12.5712 101.601 12.5815C101.613 12.5919 101.624 12.6022 101.636 12.6132C101.648 12.6235 101.659 12.634 101.67 12.6444C101.682 12.6547 101.694 12.665 101.705 12.676C101.716 12.6865 101.728 12.6969 101.739 12.7074C101.751 12.7184 101.762 12.7289 101.773 12.7393C101.784 12.7498 101.796 12.7608 101.807 12.7713C101.819 12.7824 101.83 12.7929 101.841 12.8041C101.852 12.8144 101.863 12.8259 101.874 12.8364C101.886 12.8474 101.897 12.858 101.908 12.8692C101.919 12.8797 101.93 12.891 101.941 12.9022C101.952 12.9127 101.963 12.924 101.974 12.9352C101.984 12.946 101.995 12.9572 102.007 12.9684C102.018 12.9797 102.029 12.9909 102.039 13.0016C102.05 13.0129 102.061 13.0243 102.072 13.0356C102.083 13.0461 102.093 13.0582 102.104 13.069C102.115 13.0802 102.125 13.0917 102.136 13.1029C102.147 13.1144 102.157 13.1258 102.168 13.1373C102.178 13.1487 102.189 13.16 102.2 13.1714C102.21 13.1829 102.22 13.1943 102.231 13.2058C102.242 13.2179 102.252 13.2294 102.262 13.2408C102.272 13.2525 102.283 13.2639 102.293 13.2754C102.304 13.2875 102.314 13.299 102.325 13.3104C102.334 13.3228 102.344 13.3345 102.355 13.3459C102.365 13.3574 102.375 13.3698 102.385 13.3812C102.395 13.3929 102.406 13.405 102.416 13.4167C102.425 13.4283 102.436 13.4405 102.446 13.4529C102.456 13.4645 102.466 13.4769 102.475 13.4886C102.486 13.5007 102.496 13.5124 102.506 13.5248C102.515 13.5364 102.525 13.5481 102.534 13.5607C102.545 13.5729 102.554 13.5847 102.564 13.5971C102.574 13.6088 102.584 13.6211 102.593 13.6337C102.603 13.6461 102.612 13.6578 102.622 13.6704C102.632 13.6827 102.642 13.6951 102.651 13.707C102.66 13.7196 102.67 13.7319 102.679 13.7445C102.689 13.7569 102.698 13.7688 102.707 13.7813C102.716 13.7939 102.726 13.8063 102.735 13.8182C102.745 13.8308 102.754 13.8441 102.763 13.8567C102.772 13.8685 102.782 13.8811 102.791 13.8937C102.799 13.9065 102.809 13.9189 102.819 13.9315C102.827 13.9443 102.836 13.9569 102.845 13.9697C102.854 13.9829 102.863 13.9948 102.872 14.0076C102.881 14.0209 102.891 14.0335 102.899 14.0463C102.908 14.0589 102.917 14.0717 102.925 14.0845C102.935 14.0971 102.943 14.1099 102.952 14.1234C102.96 14.1362 102.97 14.1488 102.978 14.1616C102.987 14.1744 102.996 14.1879 103.004 14.2007C103.013 14.2135 103.021 14.2263 103.03 14.2398C103.038 14.2526 103.047 14.2654 103.055 14.2791C103.064 14.2919 103.072 14.3047 103.081 14.3182C103.089 14.331 103.097 14.344 103.105 14.3571C103.114 14.3706 103.122 14.3836 103.13 14.3971C103.138 14.4101 103.147 14.4236 103.155 14.4366C103.163 14.4501 103.171 14.4631 103.179 14.4762C103.187 14.4899 103.195 14.5029 103.204 14.5164C103.212 14.5294 103.22 14.5432 103.227 14.5562C103.235 14.5699 103.243 14.5829 103.251 14.5966C103.259 14.6106 103.267 14.6236 103.275 14.6373C103.283 14.651 103.29 14.6643 103.298 14.678C103.306 14.691 103.313 14.7049 103.321 14.7186C103.328 14.7319 103.336 14.7456 103.343 14.7588C103.351 14.7725 103.359 14.7865 103.366 14.8004C103.374 14.8134 103.381 14.8274 103.389 14.8413C103.396 14.8545 103.403 14.8685 103.41 14.8824C103.417 14.8956 103.425 14.9094 103.432 14.9235C103.439 14.9375 103.447 14.9514 103.454 14.9646C103.461 14.9786 103.469 14.9925 103.475 15.0066C103.483 15.0206 103.49 15.0338 103.496 15.048C103.504 15.0619 103.51 15.0761 103.518 15.09C103.524 15.1041 103.531 15.1174 103.538 15.1315C103.545 15.1457 103.552 15.1596 103.559 15.1738C103.565 15.1879 103.572 15.2012 103.579 15.2153C103.586 15.2295 103.592 15.2436 103.599 15.2578C103.606 15.2719 103.612 15.2861 103.619 15.3002C103.625 15.3144 103.631 15.3287 103.638 15.3429C103.645 15.357 103.651 15.3705 103.657 15.3856C103.664 15.3997 103.67 15.4132 103.676 15.4275C103.683 15.4417 103.689 15.456 103.695 15.4702C103.701 15.4846 103.707 15.4989 103.714 15.5131C103.72 15.5275 103.726 15.5418 103.732 15.5562C103.738 15.5703 103.744 15.5847 103.75 15.5991C103.756 15.6141 103.762 15.6285 103.768 15.6422C103.774 15.6572 103.78 15.6709 103.786 15.686C103.792 15.7003 103.797 15.7149 103.803 15.7293C103.809 15.7437 103.814 15.7582 103.82 15.7726C103.826 15.787 103.831 15.8016 103.837 15.8159C103.843 15.8312 103.848 15.8449 103.854 15.8595C103.859 15.8747 103.864 15.8893 103.87 15.9037C103.875 15.9183 103.881 15.9329 103.886 15.9474C103.891 15.962 103.897 15.9764 103.902 15.9912C103.907 16.0056 103.912 16.0203 103.918 16.0347C103.923 16.05 103.928 16.0648 103.933 16.0794C103.938 16.094 103.944 16.1086 103.948 16.1234C103.953 16.1379 103.959 16.1532 103.963 16.168C103.968 16.1826 103.973 16.1974 103.978 16.212C103.983 16.2268 103.987 16.2416 103.993 16.2562C103.997 16.2717 104.002 16.2855 104.007 16.301C104.011 16.3158 104.016 16.3306 104.021 16.3454ZM45.2302 46.1337L38.6585 24.6203C36.2238 25.3331 34.7421 26.996 33.8486 28.9222L38.8207 45.2009C40.6382 46.2998 42.8002 46.8643 45.2302 46.1337ZM33.1409 29.1383C33.1409 29.1383 21.1862 23.7916 10.7787 31.5465C10.7787 31.5465 18.3457 30.2491 21.8595 31.8214C28.0282 34.5819 10.7787 31.5465 0.639963 48.0002C18.2419 55.9809 30.8515 43.8254 27.278 49.5616C25.2424 52.8288 18.2419 55.9809 18.2419 55.9809C31.2062 56.5972 38.1333 45.4833 38.1333 45.4833L33.1409 29.1383Z" fill="black"/>
</svg>
