<svg width="559" height="625" viewBox="0 0 559 625" fill="none" xmlns="http://www.w3.org/2000/svg">
<path d="M-17.2417 6.20568C23.3282 9.99727 49.3856 13.8147 88.0077 26.6887C118.837 36.9653 158.577 41.4402 193.515 47.4294C211.329 50.4833 230.355 51.4229 248.394 52.0671C270.5 52.8566 294.484 49 316.284 53.2265C367.271 63.1118 418.894 83.6889 460.052 115.32C513.483 156.382 552.715 211.874 557.057 280.473C560.403 333.339 527.717 394.937 488.78 429.007C429.303 481.049 353.861 484.43 278.023 485.947C232.512 486.857 189.044 493.487 145.463 506.688C106.313 518.547 77.3548 538.304 44.9804 562.211C16.8923 582.953 -13.9374 600.733 -46.6136 613.097C-75.9062 624.18 -110.168 623.749 -141.042 622.114C-185.869 619.741 -241.369 613.766 -280.687 589.651C-313.811 569.335 -339.103 535.688 -361.074 504.627C-377.8 480.979 -393.568 453.131 -376.919 426.688C-367.01 410.95 -353.902 397.682 -344.455 381.342C-331.861 359.557 -321.485 338.571 -311.863 315.255C-285.321 250.942 -283.687 179.376 -253.377 116.35C-241.941 92.571 -224.037 72.8032 -204.037 55.803C-181.186 36.3801 -150.163 14.9972 -120.688 7.3651C-88.6187 -0.938449 -49.7007 3.17213 -17.2417 6.20568Z" fill="white" stroke="white" stroke-width="3" stroke-linecap="round"/>
</svg>
