<svg width="540" height="662" viewBox="0 0 540 662" fill="none" xmlns="http://www.w3.org/2000/svg">
<path d="M370.734 209.628C370.734 210.37 370.13 210.972 369.385 210.972C368.64 210.972 368.036 210.37 368.036 209.628C368.036 208.885 368.64 208.283 369.385 208.283C370.13 208.283 370.734 208.885 370.734 209.628Z" fill="black"/>
<path d="M207.199 136.14C207.813 136.561 207.97 137.398 207.548 138.01C207.127 138.623 206.287 138.778 205.673 138.358C205.059 137.938 204.902 137.101 205.324 136.488C205.745 135.876 206.585 135.72 207.199 136.14Z" fill="black"/>
<path d="M354.819 340.839C355.247 341.447 355.1 342.286 354.49 342.712C353.88 343.139 353.039 342.992 352.611 342.384C352.183 341.776 352.33 340.938 352.94 340.511C353.55 340.084 354.391 340.231 354.819 340.839Z" fill="black"/>
<path d="M129.614 402.84C130.134 403.727 129.955 404.951 129.215 405.574C128.474 406.197 127.453 405.983 126.933 405.095C126.413 404.208 126.592 402.983 127.333 402.361C128.073 401.738 129.095 401.952 129.614 402.84Z" fill="black"/>
<path d="M81.0565 489.811C81.5763 490.698 81.3974 491.923 80.6569 492.546C79.9164 493.169 78.8948 492.954 78.375 492.067C77.8553 491.179 78.0342 489.955 78.7747 489.332C79.5152 488.709 80.5368 488.924 81.0565 489.811Z" fill="black"/>
<path d="M215.813 330.993C216.282 331.793 216.12 332.898 215.452 333.46C214.784 334.022 213.862 333.829 213.393 333.028C212.924 332.227 213.086 331.123 213.754 330.561C214.422 329.999 215.344 330.192 215.813 330.993Z" fill="black"/>
<path d="M465.871 96.9987C465.78 96.0759 466.388 95.139 467.231 94.906C468.073 94.6731 468.83 95.2322 468.921 96.155C469.013 97.0777 468.404 98.0146 467.562 98.2476C466.719 98.4806 465.962 97.9214 465.871 96.9987Z" fill="black"/>
<path d="M514.898 191.408C514.543 190.551 514.855 189.478 515.594 189.013C516.333 188.547 517.219 188.865 517.574 189.722C517.929 190.579 517.617 191.652 516.878 192.117C516.139 192.583 515.252 192.265 514.898 191.408Z" fill="black"/>
<path d="M473.931 280.492C473.577 279.635 473.888 278.562 474.627 278.097C475.366 277.631 476.253 277.949 476.607 278.806C476.962 279.663 476.65 280.735 475.911 281.201C475.172 281.666 474.286 281.349 473.931 280.492Z" fill="black"/>
<path d="M355.234 224.005C354.88 223.148 355.191 222.076 355.93 221.61C356.669 221.145 357.556 221.462 357.91 222.319C358.265 223.176 357.953 224.249 357.214 224.714C356.475 225.18 355.589 224.862 355.234 224.005Z" fill="black"/>
<path d="M308.475 118.205C308.12 117.347 308.432 116.275 309.171 115.81C309.91 115.344 310.796 115.662 311.151 116.519C311.506 117.376 311.194 118.448 310.455 118.914C309.716 119.379 308.829 119.062 308.475 118.205Z" fill="black"/>
<path d="M261.715 12.4041C261.361 11.547 261.672 10.4747 262.411 10.0092C263.15 9.54366 264.037 9.86115 264.391 10.7183C264.746 11.5755 264.434 12.6477 263.695 13.1133C262.956 13.5788 262.07 13.2613 261.715 12.4041Z" fill="black"/>
<path d="M368.936 154.934C368.936 155.677 368.332 156.279 367.587 156.279C366.842 156.279 366.238 155.677 366.238 154.934C366.238 154.191 366.842 153.589 367.587 153.589C368.332 153.589 368.936 154.191 368.936 154.934Z" fill="black"/>
<path d="M160.954 106.672C161.569 107.092 161.725 107.93 161.303 108.542C160.882 109.154 160.042 109.31 159.428 108.89C158.814 108.47 158.658 107.632 159.079 107.02C159.501 106.408 160.34 106.252 160.954 106.672Z" fill="black"/>
<path d="M321.834 297.103C322.262 297.711 322.114 298.549 321.505 298.976C320.895 299.403 320.054 299.256 319.626 298.648C319.198 298.04 319.345 297.201 319.955 296.775C320.564 296.348 321.406 296.495 321.834 297.103Z" fill="black"/>
<path d="M186.153 229.834C186.514 230.348 186.39 231.056 185.875 231.417C185.36 231.777 184.65 231.653 184.288 231.139C183.927 230.626 184.051 229.918 184.566 229.557C185.081 229.197 185.791 229.321 186.153 229.834Z" fill="black"/>
<path d="M89.5557 339.002C90.0755 339.889 89.8965 341.113 89.1561 341.736C88.4156 342.359 87.3939 342.145 86.8742 341.257C86.3544 340.37 86.5334 339.146 87.2739 338.523C88.0144 337.9 89.036 338.114 89.5557 339.002Z" fill="black"/>
<path d="M40.9978 425.973C41.5175 426.861 41.3386 428.085 40.5981 428.708C39.8576 429.331 38.836 429.116 38.3163 428.229C37.7965 427.342 37.9755 426.117 38.7159 425.494C39.4564 424.872 40.478 425.086 40.9978 425.973Z" fill="black"/>
<path d="M179.668 273.392C180.137 274.193 179.975 275.297 179.307 275.859C178.639 276.421 177.717 276.228 177.248 275.427C176.779 274.626 176.941 273.522 177.609 272.96C178.277 272.398 179.199 272.591 179.668 273.392Z" fill="black"/>
<path d="M474.632 164.381C474.54 163.459 475.149 162.522 475.991 162.289C476.834 162.056 477.59 162.615 477.682 163.538C477.773 164.461 477.164 165.397 476.322 165.63C475.48 165.863 474.723 165.304 474.632 164.381Z" fill="black"/>
<path d="M542.794 253.4C542.44 252.543 542.751 251.471 543.49 251.005C544.229 250.54 545.116 250.857 545.471 251.714C545.825 252.571 545.514 253.644 544.775 254.109C544.036 254.575 543.149 254.257 542.794 253.4Z" fill="black"/>
<path d="M501.828 342.484C501.473 341.627 501.785 340.554 502.524 340.089C503.263 339.623 504.149 339.941 504.504 340.798C504.859 341.655 504.547 342.727 503.808 343.193C503.069 343.658 502.183 343.341 501.828 342.484Z" fill="black"/>
<path d="M383.131 285.997C382.776 285.14 383.088 284.068 383.827 283.602C384.566 283.137 385.452 283.454 385.807 284.311C386.162 285.169 385.85 286.241 385.111 286.706C384.372 287.172 383.486 286.854 383.131 285.997Z" fill="black"/>
<path d="M336.371 180.197C336.017 179.34 336.328 178.267 337.067 177.802C337.806 177.336 338.693 177.654 339.048 178.511C339.402 179.368 339.091 180.44 338.352 180.906C337.613 181.371 336.726 181.054 336.371 180.197Z" fill="black"/>
<path d="M289.612 74.3962C289.257 73.5391 289.569 72.4668 290.308 72.0013C291.047 71.5358 291.934 71.8533 292.288 72.7104C292.643 73.5676 292.331 74.6399 291.592 75.1054C290.853 75.5709 289.967 75.2534 289.612 74.3962Z" fill="black"/>
<path d="M344.657 171.073C344.657 171.816 344.053 172.418 343.308 172.418C342.563 172.418 341.959 171.816 341.959 171.073C341.959 170.33 342.563 169.728 343.308 169.728C344.053 169.728 344.657 170.33 344.657 171.073Z" fill="black"/>
<path d="M160.563 135.765C161.177 136.185 161.333 137.022 160.911 137.634C160.49 138.247 159.65 138.403 159.036 137.982C158.422 137.562 158.266 136.725 158.687 136.112C159.109 135.5 159.948 135.344 160.563 135.765Z" fill="black"/>
<path d="M311.26 324.221C311.688 324.828 311.541 325.667 310.931 326.094C310.322 326.521 309.48 326.374 309.052 325.766C308.624 325.158 308.772 324.319 309.381 323.892C309.991 323.466 310.832 323.613 311.26 324.221Z" fill="black"/>
<path d="M177.223 252.736C177.585 253.25 177.46 253.958 176.945 254.318C176.431 254.679 175.72 254.555 175.359 254.041C174.997 253.528 175.122 252.819 175.637 252.459C176.152 252.099 176.862 252.223 177.223 252.736Z" fill="black"/>
<path d="M76.715 378.583C77.2348 379.471 77.0558 380.695 76.3153 381.318C75.5749 381.941 74.5532 381.726 74.0335 380.839C73.5137 379.951 73.6927 378.727 74.4331 378.104C75.1736 377.481 76.1953 377.696 76.715 378.583Z" fill="black"/>
<path d="M28.1571 465.555C28.6769 466.442 28.4979 467.666 27.7575 468.289C27.017 468.912 25.9954 468.698 25.4756 467.81C24.9559 466.923 25.1348 465.699 25.8753 465.076C26.6158 464.453 27.6374 464.667 28.1571 465.555Z" fill="black"/>
<path d="M168.081 309.106C168.55 309.907 168.389 311.012 167.721 311.574C167.053 312.136 166.131 311.942 165.662 311.142C165.193 310.341 165.354 309.236 166.023 308.674C166.691 308.112 167.613 308.306 168.081 309.106Z" fill="black"/>
<path d="M500.099 136.739C500.008 135.816 500.617 134.879 501.459 134.646C502.301 134.413 503.058 134.972 503.15 135.895C503.241 136.818 502.632 137.755 501.79 137.988C500.948 138.221 500.191 137.662 500.099 136.739Z" fill="black"/>
<path d="M559.175 219.603C558.82 218.746 559.132 217.674 559.871 217.208C560.61 216.743 561.496 217.06 561.851 217.918C562.206 218.775 561.894 219.847 561.155 220.312C560.416 220.778 559.529 220.461 559.175 219.603Z" fill="black"/>
<path d="M518.208 308.687C517.854 307.83 518.165 306.758 518.904 306.292C519.643 305.827 520.53 306.144 520.884 307.001C521.239 307.859 520.927 308.931 520.188 309.396C519.449 309.862 518.563 309.544 518.208 308.687Z" fill="black"/>
<path d="M399.511 252.201C399.156 251.343 399.468 250.271 400.207 249.806C400.946 249.34 401.833 249.658 402.187 250.515C402.542 251.372 402.23 252.444 401.491 252.91C400.752 253.375 399.866 253.058 399.511 252.201Z" fill="black"/>
<path d="M352.752 146.4C352.397 145.543 352.709 144.471 353.448 144.005C354.187 143.54 355.073 143.857 355.428 144.714C355.782 145.571 355.471 146.644 354.732 147.109C353.993 147.575 353.106 147.257 352.752 146.4Z" fill="black"/>
<path d="M305.992 40.5996C305.638 39.7425 305.949 38.6702 306.688 38.2047C307.427 37.7392 308.314 38.0567 308.668 38.9138C309.023 39.771 308.711 40.8432 307.972 41.3088C307.233 41.7743 306.347 41.4568 305.992 40.5996Z" fill="black"/>
<path d="M333.866 193.488C333.866 194.231 333.262 194.833 332.517 194.833C331.772 194.833 331.168 194.231 331.168 193.488C331.168 192.746 331.772 192.144 332.517 192.144C333.262 192.144 333.866 192.746 333.866 193.488Z" fill="black"/>
<path d="M172.993 157.319C173.607 157.739 173.763 158.577 173.342 159.189C172.92 159.801 172.081 159.957 171.466 159.537C170.852 159.117 170.696 158.279 171.117 157.667C171.539 157.055 172.378 156.899 172.993 157.319Z" fill="black"/>
<path d="M315.344 348.749C315.771 349.357 315.624 350.196 315.014 350.622C314.405 351.049 313.563 350.902 313.135 350.294C312.707 349.686 312.855 348.847 313.465 348.421C314.074 347.994 314.916 348.141 315.344 348.749Z" fill="black"/>
<path d="M180.672 273.451C181.033 273.964 180.909 274.673 180.394 275.033C179.879 275.394 179.168 275.27 178.807 274.756C178.446 274.243 178.57 273.534 179.085 273.174C179.6 272.813 180.31 272.938 180.672 273.451Z" fill="black"/>
<path d="M81.6738 414.385C82.1936 415.272 82.0146 416.497 81.2742 417.12C80.5337 417.742 79.512 417.528 78.9923 416.641C78.4725 415.753 78.6515 414.529 79.392 413.906C80.1325 413.283 81.1541 413.498 81.6738 414.385Z" fill="black"/>
<path d="M33.116 501.357C33.6358 502.244 33.4568 503.468 32.7163 504.091C31.9759 504.714 30.9542 504.5 30.4345 503.612C29.9147 502.725 30.0937 501.5 30.8342 500.878C31.5746 500.255 32.5963 500.469 33.116 501.357Z" fill="black"/>
<path d="M172.556 341.41C173.025 342.211 172.863 343.316 172.195 343.878C171.527 344.44 170.605 344.246 170.136 343.445C169.667 342.645 169.829 341.54 170.497 340.978C171.165 340.416 172.087 340.609 172.556 341.41Z" fill="black"/>
<path d="M509.544 105.518C509.452 104.595 510.061 103.658 510.903 103.425C511.746 103.192 512.503 103.751 512.594 104.674C512.685 105.597 512.077 106.534 511.234 106.767C510.392 107 509.635 106.44 509.544 105.518Z" fill="black"/>
<path d="M559.177 186.993C558.823 186.136 559.134 185.063 559.873 184.598C560.612 184.132 561.499 184.45 561.854 185.307C562.208 186.164 561.897 187.236 561.158 187.702C560.419 188.167 559.532 187.85 559.177 186.993Z" fill="black"/>
<path d="M518.211 276.077C517.856 275.22 518.168 274.147 518.907 273.682C519.646 273.216 520.532 273.534 520.887 274.391C521.242 275.248 520.93 276.32 520.191 276.786C519.452 277.251 518.565 276.934 518.211 276.077Z" fill="black"/>
<path d="M399.514 219.59C399.159 218.733 399.471 217.661 400.21 217.195C400.949 216.73 401.835 217.047 402.19 217.904C402.545 218.761 402.233 219.834 401.494 220.299C400.755 220.765 399.868 220.447 399.514 219.59Z" fill="black"/>
<path d="M352.058 74.618C351.704 73.7608 352.015 72.6886 352.754 72.2231C353.493 71.7576 354.38 72.075 354.735 72.9322C355.089 73.7894 354.778 74.8616 354.039 75.3271C353.3 75.7927 352.413 75.4752 352.058 74.618Z" fill="black"/>
<path d="M305.995 7.98908C305.64 7.13191 305.952 6.05966 306.691 5.59414C307.43 5.12862 308.316 5.4461 308.671 6.30327C309.026 7.16043 308.714 8.23268 307.975 8.69821C307.236 9.16373 306.35 8.84624 305.995 7.98908Z" fill="black"/>
<path d="M395.912 183.626C395.912 184.369 395.308 184.971 394.563 184.971C393.819 184.971 393.215 184.369 393.215 183.626C393.215 182.883 393.819 182.281 394.563 182.281C395.308 182.281 395.912 182.883 395.912 183.626Z" fill="black"/>
<path d="M199.944 100.728C200.558 101.148 200.715 101.985 200.293 102.598C199.872 103.21 199.032 103.366 198.418 102.946C197.803 102.526 197.647 101.688 198.069 101.076C198.49 100.464 199.33 100.308 199.944 100.728Z" fill="black"/>
<path d="M360.445 305.133C360.873 305.741 360.726 306.58 360.116 307.007C359.507 307.434 358.665 307.287 358.237 306.679C357.809 306.071 357.957 305.232 358.566 304.805C359.176 304.378 360.017 304.525 360.445 305.133Z" fill="black"/>
<path d="M218.762 236.617C219.123 237.13 218.999 237.838 218.484 238.199C217.969 238.559 217.258 238.435 216.897 237.922C216.535 237.408 216.66 236.7 217.175 236.339C217.69 235.979 218.4 236.103 218.762 236.617Z" fill="black"/>
<path d="M136.448 350.723C136.967 351.611 136.788 352.835 136.048 353.458C135.307 354.081 134.286 353.866 133.766 352.979C133.246 352.092 133.425 350.867 134.166 350.244C134.906 349.622 135.928 349.836 136.448 350.723Z" fill="black"/>
<path d="M87.8897 437.695C88.4095 438.582 88.2305 439.807 87.49 440.43C86.7496 441.052 85.7279 440.838 85.2082 439.951C84.6884 439.063 84.8674 437.839 85.6079 437.216C86.3483 436.593 87.37 436.808 87.8897 437.695Z" fill="black"/>
<path d="M221.978 283.968C222.447 284.769 222.286 285.874 221.618 286.436C220.949 286.998 220.028 286.804 219.559 286.004C219.09 285.203 219.251 284.098 219.919 283.536C220.587 282.974 221.509 283.168 221.978 283.968Z" fill="black"/>
<path d="M445.083 113.608C444.992 112.685 445.601 111.748 446.443 111.515C447.285 111.283 448.042 111.842 448.134 112.764C448.225 113.687 447.616 114.624 446.774 114.857C445.932 115.09 445.175 114.531 445.083 113.608Z" fill="black"/>
<path d="M502.334 237.148C501.98 236.291 502.291 235.219 503.03 234.753C503.769 234.288 504.656 234.605 505.01 235.462C505.365 236.319 505.053 237.392 504.314 237.857C503.575 238.323 502.689 238.005 502.334 237.148Z" fill="black"/>
<path d="M461.368 326.232C461.013 325.375 461.325 324.302 462.064 323.837C462.803 323.371 463.689 323.689 464.044 324.546C464.398 325.403 464.087 326.475 463.348 326.941C462.609 327.406 461.722 327.089 461.368 326.232Z" fill="black"/>
<path d="M342.671 269.745C342.316 268.888 342.628 267.816 343.367 267.35C344.106 266.885 344.992 267.202 345.347 268.059C345.702 268.917 345.39 269.989 344.651 270.454C343.912 270.92 343.025 270.602 342.671 269.745Z" fill="black"/>
<path d="M227.501 185.519C227.146 184.661 227.458 183.589 228.197 183.124C228.936 182.658 229.823 182.976 230.177 183.833C230.532 184.69 230.22 185.762 229.481 186.228C228.742 186.693 227.856 186.376 227.501 185.519Z" fill="black"/>
<path d="M227.501 185.519C227.146 184.661 227.458 183.589 228.197 183.124C228.936 182.658 229.823 182.976 230.177 183.833C230.532 184.69 230.22 185.762 229.481 186.228C228.742 186.693 227.856 186.376 227.501 185.519Z" fill="black"/>
<path d="M101.139 129.984C100.784 129.127 101.096 128.054 101.835 127.589C102.574 127.123 103.461 127.441 103.815 128.298C104.17 129.155 103.858 130.227 103.119 130.693C102.38 131.158 101.494 130.841 101.139 129.984Z" fill="black"/>
<path d="M348.424 379.242C348.07 378.385 348.381 377.313 349.12 376.848C349.859 376.382 350.746 376.7 351.101 377.557C351.455 378.414 351.144 379.486 350.405 379.952C349.666 380.417 348.779 380.1 348.424 379.242Z" fill="black"/>
<path d="M249.152 58.1442C248.797 57.2871 249.109 56.2148 249.848 55.7493C250.587 55.2838 251.473 55.6013 251.828 56.4584C252.183 57.3156 251.871 58.3878 251.132 58.8534C250.393 59.3189 249.506 59.0014 249.152 58.1442Z" fill="black"/>
<path d="M122.79 2.60939C122.435 1.75223 122.747 0.679979 123.486 0.214456C124.225 -0.251067 125.111 0.0664208 125.466 0.923585C125.821 1.78075 125.509 2.853 124.77 3.31852C124.031 3.78404 123.144 3.46656 122.79 2.60939Z" fill="black"/>
<path d="M370.075 251.868C369.721 251.011 370.032 249.939 370.771 249.473C371.51 249.008 372.397 249.325 372.751 250.182C373.106 251.039 372.794 252.112 372.055 252.577C371.316 253.043 370.43 252.725 370.075 251.868Z" fill="black"/>
<path d="M412.997 218.594C412.997 219.336 412.394 219.939 411.649 219.939C410.904 219.939 410.3 219.336 410.3 218.594C410.3 217.851 410.904 217.249 411.649 217.249C412.394 217.249 412.997 217.851 412.997 218.594Z" fill="black"/>
<path d="M286.635 163.059C286.635 163.802 286.032 164.404 285.287 164.404C284.542 164.404 283.938 163.802 283.938 163.059C283.938 162.316 284.542 161.714 285.287 161.714C286.032 161.714 286.635 162.316 286.635 163.059Z" fill="black"/>
<path d="M533.921 412.318C533.921 413.06 533.317 413.662 532.572 413.662C531.827 413.662 531.223 413.06 531.223 412.318C531.223 411.575 531.827 410.973 532.572 410.973C533.317 410.973 533.921 411.575 533.921 412.318Z" fill="black"/>
<path d="M238.527 106.467C239.141 106.888 239.298 107.725 238.876 108.337C238.455 108.95 237.615 109.105 237.001 108.685C236.386 108.265 236.23 107.428 236.652 106.815C237.073 106.203 237.913 106.047 238.527 106.467Z" fill="black"/>
<path d="M112.165 50.9325C112.779 51.3528 112.935 52.1899 112.514 52.8024C112.092 53.4148 111.253 53.5706 110.639 53.1503C110.024 52.73 109.868 51.8929 110.29 51.2804C110.711 50.668 111.551 50.5122 112.165 50.9325Z" fill="black"/>
<path d="M359.451 300.191C360.065 300.611 360.221 301.449 359.799 302.061C359.378 302.674 358.538 302.829 357.924 302.409C357.31 301.989 357.154 301.152 357.575 300.539C357.997 299.927 358.836 299.771 359.451 300.191Z" fill="black"/>
<path d="M394.577 323.967C395.005 324.575 394.858 325.414 394.248 325.841C393.639 326.268 392.797 326.121 392.369 325.513C391.941 324.905 392.089 324.066 392.698 323.639C393.308 323.212 394.149 323.359 394.577 323.967Z" fill="black"/>
<path d="M268.215 268.432C268.643 269.04 268.496 269.879 267.886 270.306C267.277 270.733 266.435 270.586 266.007 269.978C265.579 269.37 265.727 268.531 266.336 268.104C266.946 267.678 267.787 267.825 268.215 268.432Z" fill="black"/>
<path d="M515.501 517.691C515.929 518.299 515.781 519.138 515.172 519.565C514.562 519.991 513.721 519.844 513.293 519.237C512.865 518.629 513.012 517.79 513.622 517.363C514.232 516.936 515.073 517.083 515.501 517.691Z" fill="black"/>
<path d="M121.225 196.987C121.586 197.501 121.462 198.209 120.947 198.57C120.432 198.93 119.722 198.806 119.36 198.293C118.999 197.779 119.123 197.071 119.638 196.71C120.153 196.35 120.863 196.474 121.225 196.987Z" fill="black"/>
<path d="M368.51 446.246C368.872 446.76 368.747 447.468 368.232 447.828C367.717 448.189 367.007 448.065 366.646 447.551C366.284 447.038 366.409 446.329 366.924 445.969C367.439 445.609 368.149 445.733 368.51 446.246Z" fill="black"/>
<path d="M177.899 378.214C178.419 379.101 178.24 380.325 177.499 380.948C176.759 381.571 175.737 381.357 175.217 380.469C174.698 379.582 174.877 378.358 175.617 377.735C176.358 377.112 177.379 377.326 177.899 378.214Z" fill="black"/>
<path d="M51.5368 322.679C52.0566 323.566 51.8777 324.79 51.1372 325.413C50.3967 326.036 49.3751 325.822 48.8553 324.934C48.3356 324.047 48.5145 322.823 49.255 322.2C49.9955 321.577 51.0171 321.791 51.5368 322.679Z" fill="black"/>
<path d="M298.822 571.937C299.342 572.825 299.163 574.049 298.423 574.672C297.682 575.295 296.66 575.08 296.141 574.193C295.621 573.306 295.8 572.081 296.54 571.458C297.281 570.836 298.303 571.05 298.822 571.937Z" fill="black"/>
<path d="M129.341 465.185C129.861 466.073 129.682 467.297 128.941 467.92C128.201 468.543 127.179 468.328 126.66 467.441C126.14 466.553 126.319 465.329 127.059 464.706C127.8 464.083 128.821 464.298 129.341 465.185Z" fill="black"/>
<path d="M2.97898 409.65C3.49873 410.538 3.31979 411.762 2.57931 412.385C1.83882 413.008 0.817204 412.793 0.297454 411.906C-0.222297 411.018 -0.0433581 409.794 0.697124 409.171C1.43761 408.548 2.45923 408.763 2.97898 409.65Z" fill="black"/>
<path d="M250.264 658.909C250.784 659.796 250.605 661.021 249.865 661.643C249.124 662.266 248.103 662.052 247.583 661.165C247.063 660.277 247.242 659.053 247.983 658.43C248.723 657.807 249.745 658.022 250.264 658.909Z" fill="black"/>
<path d="M259.38 308.773C259.849 309.573 259.687 310.678 259.019 311.24C258.351 311.802 257.429 311.609 256.96 310.808C256.491 310.007 256.653 308.903 257.321 308.341C257.989 307.779 258.911 307.972 259.38 308.773Z" fill="black"/>
<path d="M446.774 65.9217C446.683 64.9989 447.291 64.062 448.134 63.829C448.976 63.5961 449.733 64.1552 449.824 65.078C449.916 66.0007 449.307 66.9376 448.465 67.1706C447.622 67.4036 446.865 66.8444 446.774 65.9217Z" fill="black"/>
<path d="M468.69 207.472C468.336 206.615 468.647 205.543 469.386 205.077C470.125 204.612 471.012 204.929 471.366 205.786C471.721 206.643 471.409 207.716 470.67 208.181C469.931 208.647 469.045 208.329 468.69 207.472Z" fill="black"/>
<path d="M427.724 296.556C427.369 295.699 427.681 294.626 428.42 294.161C429.159 293.695 430.045 294.013 430.4 294.87C430.755 295.727 430.443 296.799 429.704 297.265C428.965 297.731 428.078 297.413 427.724 296.556Z" fill="black"/>
<path d="M309.027 240.069C308.672 239.212 308.984 238.14 309.723 237.674C310.462 237.209 311.348 237.526 311.703 238.383C312.058 239.241 311.746 240.313 311.007 240.778C310.268 241.244 309.381 240.926 309.027 240.069Z" fill="black"/>
<path d="M262.267 134.269C261.913 133.412 262.224 132.339 262.963 131.874C263.702 131.408 264.589 131.726 264.944 132.583C265.298 133.44 264.987 134.512 264.248 134.978C263.509 135.443 262.622 135.126 262.267 134.269Z" fill="black"/>
<path d="M215.508 28.4683C215.153 27.6111 215.465 26.5389 216.204 26.0734C216.943 25.6079 217.829 25.9253 218.184 26.7825C218.539 27.6397 218.227 28.7119 217.488 29.1774C216.749 29.643 215.863 29.3255 215.508 28.4683Z" fill="black"/>
<path d="M450.765 237.423C450.765 238.165 450.161 238.767 449.416 238.767C448.671 238.767 448.067 238.165 448.067 237.423C448.067 236.68 448.671 236.078 449.416 236.078C450.161 236.078 450.765 236.68 450.765 237.423Z" fill="black"/>
<path d="M275.467 86.0713C276.081 86.4916 276.237 87.3288 275.816 87.9412C275.394 88.5537 274.555 88.7095 273.94 88.2892C273.326 87.8689 273.17 87.0317 273.591 86.4193C274.013 85.8068 274.852 85.651 275.467 86.0713Z" fill="black"/>
<path d="M436.339 317.744C436.767 318.352 436.619 319.191 436.01 319.617C435.4 320.044 434.559 319.897 434.131 319.289C433.703 318.681 433.85 317.843 434.46 317.416C435.069 316.989 435.911 317.136 436.339 317.744Z" fill="black"/>
<path d="M282.855 247.267C283.217 247.78 283.092 248.488 282.577 248.849C282.063 249.209 281.352 249.085 280.991 248.572C280.629 248.058 280.754 247.35 281.269 246.989C281.784 246.629 282.494 246.753 282.855 247.267Z" fill="black"/>
<path d="M228.616 369.13C229.135 370.017 228.956 371.242 228.216 371.865C227.475 372.487 226.454 372.273 225.934 371.386C225.414 370.498 225.593 369.274 226.334 368.651C227.074 368.028 228.096 368.243 228.616 369.13Z" fill="black"/>
<path d="M180.058 456.102C180.577 456.989 180.398 458.213 179.658 458.836C178.917 459.459 177.896 459.244 177.376 458.357C176.856 457.47 177.035 456.245 177.776 455.623C178.516 455 179.538 455.214 180.058 456.102Z" fill="black"/>
<path d="M305.141 300.577C305.61 301.377 305.449 302.482 304.781 303.044C304.112 303.606 303.191 303.413 302.722 302.612C302.253 301.811 302.414 300.706 303.082 300.144C303.75 299.582 304.672 299.776 305.141 300.577Z" fill="black"/>
<path d="M392.377 59.3164C392.285 58.3936 392.894 57.4567 393.737 57.2237C394.579 56.9908 395.336 57.5499 395.427 58.4727C395.518 59.3954 394.91 60.3323 394.067 60.5653C393.225 60.7983 392.468 60.2391 392.377 59.3164Z" fill="black"/>
<path d="M422.234 209.345C421.88 208.488 422.191 207.415 422.93 206.95C423.669 206.484 424.556 206.802 424.91 207.659C425.265 208.516 424.953 209.588 424.214 210.054C423.475 210.52 422.589 210.202 422.234 209.345Z" fill="black"/>
<path d="M381.268 298.429C380.913 297.572 381.225 296.499 381.964 296.034C382.703 295.568 383.589 295.886 383.944 296.743C384.298 297.6 383.987 298.672 383.248 299.138C382.509 299.603 381.622 299.286 381.268 298.429Z" fill="black"/>
<path d="M262.571 241.942C262.216 241.085 262.528 240.013 263.267 239.547C264.006 239.082 264.892 239.399 265.247 240.256C265.601 241.113 265.29 242.186 264.551 242.651C263.812 243.117 262.925 242.799 262.571 241.942Z" fill="black"/>
<path d="M215.811 136.142C215.457 135.284 215.768 134.212 216.507 133.747C217.246 133.281 218.133 133.599 218.487 134.456C218.842 135.313 218.53 136.385 217.791 136.851C217.052 137.316 216.166 136.999 215.811 136.142Z" fill="black"/>
<path d="M171.032 22.5688C170.677 21.7116 170.989 20.6393 171.728 20.1738C172.467 19.7083 173.353 20.0258 173.708 20.8829C174.063 21.7401 173.751 22.8124 173.012 23.2779C172.273 23.7434 171.387 23.4259 171.032 22.5688Z" fill="black"/>
</svg>
